<?xml version="1.0" encoding="utf-8"?>
<!-- Generator: Adobe Illustrator 21.0.0, SVG Export Plug-In . SVG Version: 6.00 Build 0)  -->
<svg version="1.1" id="content" xmlns="http://www.w3.org/2000/svg" xmlns:xlink="http://www.w3.org/1999/xlink" x="0px" y="0px"
	 viewBox="0 0 391.4 330.7" style="enable-background:new 0 0 391.4 330.7;" xml:space="preserve">
<style type="text/css">
	.st0{fill:url(#SVGID_1_);}
	.st1{fill:url(#SVGID_2_);}
	.st2{fill:url(#SVGID_3_);}
	.st3{fill:url(#SVGID_4_);}
	.st4{fill:url(#SVGID_5_);}
	.st5{fill:url(#SVGID_6_);}
	.st6{fill:url(#SVGID_7_);}
	.st7{fill:url(#SVGID_8_);}
	.st8{fill:url(#SVGID_9_);}
	.st9{fill:url(#SVGID_10_);}
	.st10{fill:url(#SVGID_11_);}
	.st11{fill:url(#SVGID_12_);}
	.st12{fill:url(#SVGID_13_);}
	.st13{fill:url(#SVGID_14_);}
</style>
<g id="XMLID_1_">
</g>
<g>
	
		<linearGradient id="SVGID_1_" gradientUnits="userSpaceOnUse" x1="254.4995" y1="240.5163" x2="216.2641" y2="162.122" gradientTransform="matrix(1 0 0 -1 0 332)">
		<stop  offset="0" style="stop-color:#E84FFF"/>
		<stop  offset="0.9381" style="stop-color:#02E1FF"/>
	</linearGradient>
	<path class="st0" d="M230.7,138.3c-0.6-0.6-1.2-0.9-1.9-1.4c-0.3-0.2-0.6-0.4-0.8-0.5c-0.3,0-0.6,0-0.9,0c0.2,0.2,0.4,0.4,0.7,0.6
		c0.2,0.2,0.4,0.4,0.6,0.5c0.3,0.2,0.5,0.4,0.7,0.6c0.8,0.6,1.3,1.1,1.7,2.3c0.6,1.7,0.8,3.8,0.6,5.8c0.7-0.1,1.4-0.2,2.1-0.4
		c-0.1-1.7-0.4-3.3-0.9-4.5C232,140.1,231.7,139.2,230.7,138.3z"/>
	
		<linearGradient id="SVGID_2_" gradientUnits="userSpaceOnUse" x1="257.7372" y1="232.3698" x2="218.1228" y2="151.1481" gradientTransform="matrix(1 0 0 -1 0 332)">
		<stop  offset="0" style="stop-color:#E84FFF"/>
		<stop  offset="0.9381" style="stop-color:#02E1FF"/>
	</linearGradient>
	<path class="st1" d="M237.8,138.1c-0.6,0-1.1-0.1-1.6-0.2c0.1,0.1,0.2,0.2,0.3,0.3c0.9,1.1,2.1,3.3,2.3,5.1
		c0.3-0.3,0.6-0.6,0.9-0.8c0-0.1,0-0.1,0-0.2C239.4,140.6,239.1,139,237.8,138.1z"/>
	
		<linearGradient id="SVGID_3_" gradientUnits="userSpaceOnUse" x1="250.0852" y1="223.1343" x2="222.4401" y2="166.4534" gradientTransform="matrix(1 0 0 -1 0 332)">
		<stop  offset="0" style="stop-color:#E84FFF"/>
		<stop  offset="0.9381" style="stop-color:#02E1FF"/>
	</linearGradient>
	<path class="st2" d="M234.5,137.4c-0.5-0.2-1-0.5-1.5-0.8c-0.3-0.1-0.7-0.3-1.1-0.3c0.8,0.8,1.6,1.9,2.1,2.6
		c0.1,0.2,0.3,0.3,0.4,0.5l0.2,0.2c0.9,1.3,2.2,3,2.4,4.7c0.3-0.2,0.6-0.4,0.9-0.6c0-1.6-1.1-3.8-2.2-5.2
		C235.5,138.2,235.1,137.8,234.5,137.4z"/>
	
		<linearGradient id="SVGID_4_" gradientUnits="userSpaceOnUse" x1="251.3477" y1="229.5309" x2="219.751" y2="164.7482" gradientTransform="matrix(1 0 0 -1 0 332)">
		<stop  offset="0" style="stop-color:#E84FFF"/>
		<stop  offset="0.9381" style="stop-color:#02E1FF"/>
	</linearGradient>
	<path class="st3" d="M233.9,139.9c-0.1-0.1-0.2-0.3-0.4-0.5c-0.7-1-1.6-2.3-2.6-3.1c-0.5,0-1.1,0.1-1.7,0.1
		c0.6,0.4,1.3,0.8,1.9,1.4c1.1,1,1.5,1.9,2,3.2s0.9,2.9,0.9,4.6h0.1c0.8-0.2,1.5-0.5,2.2-0.8c-0.1-1.6-1.4-3.3-2.4-4.6V139.9z"/>
	
		<linearGradient id="SVGID_5_" gradientUnits="userSpaceOnUse" x1="258.7754" y1="266.9209" x2="211.2381" y2="169.4551" gradientTransform="matrix(1 0 0 -1 0 332)">
		<stop  offset="0" style="stop-color:#E84FFF"/>
		<stop  offset="0.9381" style="stop-color:#02E1FF"/>
	</linearGradient>
	<path class="st4" d="M224.4,141.5c-0.2-2.4-1.2-3.6-3.1-5.1c-0.8,0-1.5-0.1-2.2-0.1c0.2,0.2,0.3,0.3,0.5,0.5l0.1,0.1
		c0.1,0.1,0.2,0.2,0.3,0.3c1,1,1.8,1.8,2.3,3.2c0.4,1.1,0.5,2.3,0.5,3.3c0,0.7-0.1,1.2-0.2,1.8c0,0.2-0.1,0.5-0.1,0.7
		c0.5,0.1,1.1,0.1,1.6,0.1c0.6-1.4,0.4-3.1,0.3-4.6L224.4,141.5z"/>
	
		<linearGradient id="SVGID_6_" gradientUnits="userSpaceOnUse" x1="251.5897" y1="257.4637" x2="212.3111" y2="176.9306" gradientTransform="matrix(1 0 0 -1 0 332)">
		<stop  offset="0" style="stop-color:#E84FFF"/>
		<stop  offset="0.9381" style="stop-color:#02E1FF"/>
	</linearGradient>
	<path class="st5" d="M219.6,137.8c-0.1-0.1-0.2-0.2-0.3-0.3l-0.1-0.1c-0.3-0.3-0.7-0.7-1.1-1.1c-0.7-0.1-1.3-0.1-1.9-0.2
		c0.9,0.8,1.7,1.8,2.3,3.1c0.9,2,1.3,3.9,1.4,6.5c0.6,0.2,1.3,0.4,2.1,0.5c0-0.3,0.1-0.5,0.1-0.8c0.1-0.5,0.2-1.1,0.2-1.6
		c0-1.2-0.1-2.1-0.4-3.1C221.3,139.4,220.6,138.8,219.6,137.8z"/>
	
		<linearGradient id="SVGID_7_" gradientUnits="userSpaceOnUse" x1="290.5231" y1="321.9193" x2="199.2068" y2="134.6931" gradientTransform="matrix(1 0 0 -1 0 332)">
		<stop  offset="0" style="stop-color:#E84FFF"/>
		<stop  offset="0.9381" style="stop-color:#02E1FF"/>
	</linearGradient>
	<path class="st6" d="M225.1,136.5c-0.1,0-0.2,0-0.4,0c1.1,1.2,2,2.8,2.3,4.5c0.2,1.2,0.6,3.7-0.1,5.4l0,0h0.1c0,0,0.5,0,1.2,0
		c0-2,0-4-0.6-5.8C227.1,139.1,226.1,137.7,225.1,136.5z"/>
	
		<linearGradient id="SVGID_8_" gradientUnits="userSpaceOnUse" x1="266.7927" y1="269.4192" x2="209.0472" y2="151.0234" gradientTransform="matrix(1 0 0 -1 0 332)">
		<stop  offset="0" style="stop-color:#E84FFF"/>
		<stop  offset="0.9381" style="stop-color:#02E1FF"/>
	</linearGradient>
	<path class="st7" d="M228.6,138.7c-0.2-0.2-0.4-0.4-0.7-0.6c-0.2-0.2-0.4-0.3-0.6-0.5c-0.4-0.4-0.8-0.7-1.2-1.1
		c0.9,1.1,1.8,2.4,2.3,3.9c0.6,1.9,0.6,4,0.6,6c0.5,0,1-0.1,1.6-0.1c0.2-2,0-4.1-0.5-5.7C229.7,139.7,229.3,139.3,228.6,138.7z"/>
	
		<linearGradient id="SVGID_9_" gradientUnits="userSpaceOnUse" x1="277.5685" y1="299.7087" x2="205.0806" y2="151.0864" gradientTransform="matrix(1 0 0 -1 0 332)">
		<stop  offset="0" style="stop-color:#E84FFF"/>
		<stop  offset="0.9381" style="stop-color:#02E1FF"/>
	</linearGradient>
	<path class="st8" d="M223.7,136.5c-0.4,0-0.8,0-1.2,0c1.4,1.2,2.4,2.6,2.6,5v0.3c0.1,1.5,0.3,3.2-0.2,4.7c0.4,0,0.8,0,1.2,0
		c0.7-1.2,0.6-3.4,0.2-5.3C226,139.3,225,137.6,223.7,136.5z"/>
	
		<linearGradient id="SVGID_10_" gradientUnits="userSpaceOnUse" x1="269.1116" y1="298.8398" x2="209.3905" y2="176.3935" gradientTransform="matrix(1 0 0 -1 0 332)">
		<stop  offset="0" style="stop-color:#E84FFF"/>
		<stop  offset="0.9381" style="stop-color:#02E1FF"/>
	</linearGradient>
	<path class="st9" d="M216.4,141.2c-0.1-0.5-0.1-0.8-0.4-0.9c-0.1,0-0.3-0.1-0.6-0.3c0,0.7,0,2.2,1.3,3.6c0,0.1,0.1,0.1,0.1,0.1
		c0.1-0.7,0.1-1.4-0.1-2C216.4,141.6,216.4,141.4,216.4,141.2z"/>
	
		<linearGradient id="SVGID_11_" gradientUnits="userSpaceOnUse" x1="228.9954" y1="253.898" x2="210.966" y2="216.9324" gradientTransform="matrix(1 0 0 -1 0 332)">
		<stop  offset="0" style="stop-color:#E84FFF"/>
		<stop  offset="0.9381" style="stop-color:#02E1FF"/>
	</linearGradient>
	<path class="st10" d="M251.7,115.8l-0.1-0.2v-0.3c0.4-3.5-1.2-6.2-2.9-7.9c1.3,3.1,1.4,5.7,1.2,7.5c-0.4,2.8-1.5,4.4-1.6,4.4
		c0,0,2.6-6.6-2.9-14.4l-0.4-0.2l0.1-0.6c0.9-5.7-5.2-8-5.2-8l-0.3-0.1l0,0c-2.9-1.1-5.1,1.8-5.2,1.9l-1.1,1.5l-0.4-1.8
		c-0.1-0.4-1-3.7-4.9-3.1c0,0,3.9-2.4,6,1.4c1.1-1,2.7-1.9,4.6-1.7c-4.7-8.6-14.6-9.6-18.8-9.6c-1.4,0-2.3,0.1-2.3,0.1h-0.3l0,0
		c-1.7,0.1-2.7,1.2-3.2,2.1c1.7-0.2,4,0.2,5.4,2c8.2-2.1,11.9,3.8,11.9,3.8c-4.4-4.6-11.2-2.4-11.9-2.1c-0.5,0.3-3.4,2.3-3.1,6l0,0
		c0.9,2.4-0.6,5.2-0.6,5.2c0-2.2-0.4-3.8-1-5.1l0,0c0,0,0,0,0-0.1c-1.1-2.4-2.6-3.3-2.6-3.3c1.2,0.3,2.1,0.7,2.7,1.2
		c0.5-2.5,2.1-4.2,3.1-4.9c-1.7-1.8-4.3-1.2-4.9-1c-0.3,0.3-1.9,1.6-3.5,3.5c-3.4,4.1-2.8,10-2.8,10c-0.4-1.2-0.7-2.3-0.7-3.5l0,0
		c0,0-3.8-0.6-3.1-4.8c0,0,0.8,3.1,3.1,3.1c0.2-2,0.9-4,2.2-5.8c0.4-0.5,0.8-1,1.1-1.4c-1.4-2.7-4.6-2.8-4.6-2.8
		c1.3-0.6,3.9-0.9,5.8,1.7c0.6-0.6,1.1-0.9,1.4-1.2c0.3-1.2,1.3-2.8,2.9-3.7c-2.2-0.8-4.5-1.2-6.9-1.2c-2.3,0-4.3,0.4-5.7,0.8
		c0.5,0.4,1,1,1.4,1.8c1.9-0.7,4,0.3,4,0.3s-2.1-0.5-3.5,0.6c-1,0.7-1.6,2.1-1.7,3.9v0.5l-0.5,0.2c-0.1,0-2.8,1.1-2.9,4v0.3
		l-0.2,0.2c-0.1,0.1-2.9,2.4-1.1,7.6c0,0-1.5-2-1.6-4.5c-6-2.5-8.5,2.1-8.8,2.6c-0.5,1.6-1.4,3-2.8,3.4c-4.1,1.1-5.2-1.5-5.2-1.5
		s2.5,0.9,4.5,0c0.9-0.4,1.6-1.3,2-2.5V100c0,0,0.1-0.2,0.2-0.4c-0.8-0.2-1.4-0.6-2-1.2c-1.8-1.8-0.1-4.9-0.1-4.9l0,0
		c0,0-0.1,2.4,1.2,3.8c0.5,0.5,1.1,0.8,1.9,0.8c0.8-0.9,2-1.8,3.7-2.2c0.8-2.8-0.1-4.9-0.1-4.9c1.6,1.1,1.7,3.3,1.6,4.7
		c1.1-0.1,2.5,0.1,4,0.7c0.2-0.7,0.5-1.5,1.1-2.2c0.1-0.8,0.3-1.6,0.6-2.2c-2.1-2.5-5.6-2.1-5.7-2.1c0,0,4-1.9,6.6,0.7
		c0.7-0.7,1.4-1.2,1.9-1.4c0.3-1.6,0.8-2.6,1.4-3.3c-0.5-1.8-2.1-2.1-2.2-2.1c-1.1-0.1-2.1-0.2-3.1-0.2c-8.6,0-10.9,4-10.9,4.1
		l-0.3,0.5l-0.6-0.1c-0.4-0.1-0.7-0.1-1-0.1c-4.4,0-7.1,5.1-7.1,5.2l-0.1,0.2l-0.2,0.1c-2.1,1.3-3.7,2.6-4.9,4
		c1.4-0.8,3.1-1.3,5.2-0.9c0.5-1.6,1.6-3.3,4-5c1.9-1.3,4-1.6,4.8-1.8c0.4-0.5,1.2-1.7,2.8-2.6c4.8-2.6,9.1,0.4,9.1,0.4
		c-7.5-1.9-10.7,3.3-10.7,3.3l-0.2,0.3l-0.4,0.1c-0.4,0.1-9.8,2.6-8.9,10.6c0,0-0.9-1.6-0.8-3.8c-4.5-0.7-6.9,3.4-7.3,4.2
		c-0.2,2,0.6,3.3,0.6,3.3l0.4,0.6c0,0,1.8,1.9,4.2,0.4c0,0-2.6,2.9-5.2,0.6c-0.5,0.6-0.7,1.3-0.7,2.1c0.1,2.2,2.3,4.5,3.2,5.2
		l0.3,0.2v0.3c0.5,5.3,6.9,7.2,9.5,7.7c-0.1-1-0.1-2.4,0.7-3.6c-0.8-0.2-1.9-0.5-2.9-1.1c-2.2-1.2-5.1-3.5-6-8.2
		c0,0,1.1,2.2,3.1,4.3c1.9-4.2-0.2-8.2-0.2-8.2c2.7,3,1.7,7.5,1.2,9.1c1.6,1.4,3.6,2.5,6.1,2.6c0.5-0.8,1.8-2.5,4.1-3.9
		c0,0,0.1,0,0.1-0.1c-2.2-4.9-7.8-5.3-7.9-5.3c0,0,6.7-1,9.3,4.5c1.3-0.6,3-1.2,5-1.6c0.4-7.3-3.4-11.6-3.4-11.7c0,0,5.2,3.8,5,11.4
		c2.1-0.2,4.5-0.1,7.3,0.3c0.4-0.4,1.3-1.1,2.4-1.5c0.3-3.2-1.5-5.6-1.5-5.6c1.2,0.4,3.2,2,3.2,5.2c0.7-0.1,1.5,0,2.4,0.3
		c0.6-0.3,1.8-1,3.4-1.4c1.5-1.4,1.4-5.1,1.4-5.1c1.1,1.8,0.8,3.5,0.4,4.8c1.8-0.3,4-0.1,6.2,0.9l0.1,0.1l0.1,0.1l0,0
		c4.7-1.2,6.8-7.1,6.8-7.1c-0.4,4-2.2,6.2-3.6,7.3c-0.7,0.5-1.4,0.9-1.9,1.1c2.3,1.8,4.8,1.4,4.8,1.4c-2.9,1.9-6.4-0.9-7.1-1.4
		c-5-2.2-9.9,1-10,1.1l-0.4,0.2l-0.4-0.2c-2.9-1.1-5.1,1.2-5.4,1.4c-2.1,2.8-1.6,5.1-1.6,5.1c-1.1-1.9-0.7-3.8-0.2-4.9
		c-9.6-1.4-14.4,2.3-16.4,4.5c1.3,0.3,1.8,1.9,1.8,1.9c-0.9-1.2-2.9-0.2-2.9-0.2l-0.2,0.1c-1.9,1.2-1.1,3.6-1.1,3.7l0.1,0.6
		c0.1,0.6,0.5,1,0.8,1.2c1.7-2.6,4.2-1.4,4.2-1.4c-1.8-0.1-2.8,2-2.8,2l-0.3,0.8c-0.4,0.9-0.4,1.8,0,2.6c0.6,1.3,2.1,2.1,3.2,2.6
		c-0.4-3.2,2.3-4.3,2.3-4.3c-0.1,0.1-1.6,1.8-0.4,5.1c2.2,2.5,5.2,3.7,8.8,3.7c4.4,0,8.2-1.9,8.2-1.9l0.1-0.1l4.8-0.8l0.2,0.1
		c1.2,0.6,4.2,1.4,11.6,1.4c4.4,0,8.4-0.3,8.4-0.3h0.4l0.3,0.3c1.1,1.1,2.9,1.7,5.5,1.7c0.7,0,1.3,0,2-0.1c0.1-1.1-0.3-3.6-3.5-5.7
		c-1,0.4-2,0.6-2.9,0.7c1.3,1.5,1.2,2.9,1.2,2.9c-1.5-2.5-3.8-2.9-3.8-2.9c-4.6-2.4-14-1.8-15.7-1.7c-3.8,3.1-8.2,1.8-9.9,1
		c-1.6,2.8-4.3,3.6-6.2,3.6c-0.5,0-0.9,0-1.2-0.1c0,0,4.5-0.8,6.3-4.9l0.4-0.8l0.8,0.4c0.2,0.1,5.1,2.8,9-0.6l0.2-0.2h0.3
		c0.5-0.1,11.3-1.1,16.9,1.8c7.1,1,9.7-4.3,9.7-4.3c-0.9,2.1-2.1,3.4-3.4,4.3c2.6,1.6,2.9,3,3.3,4.4c0.2,0.7,0.3,1.4,0.3,1.9
		c1.7-0.3,2.9-0.6,2.9-0.6h0.1c3-0.7,5-2.6,5.9-5.5c0.1-0.5,0.3-1,0.3-1.4c-1,1-2.5,1.9-4.5,1.9c0,0,3.9-1.4,4.6-4.9v-0.2l0.2-0.3
		C254.9,121.6,251.7,115.8,251.7,115.8z M222.9,100.6c0,0,0.9-1.1,2.3-1.9c-3.2-4.5-0.1-7.3-0.1-7.3s-1.5,3.8,1.6,6.6
		c1-0.3,2.1-0.3,3.1,0.2c3.3,1.7,2.3,7.8,2.3,7.8c-0.3-3.3-1.3-5.5-3-6.3C226.5,98.4,223,100.6,222.9,100.6z M231.5,121.1
		c-1.8,0.8-3.5,1.2-4.4,1.4c-0.3,2.9,2.4,5,2.4,5c-2.8-0.7-3.7-2.7-3.9-4.3c-1.7,0.7-4.3,0.9-6.5-1.5c-1,0.3-3.1,1-5.2,0.7l0,0
		c0,0-2.3,0.6-2,4c0,0-1.3-2.4,0.3-4.5c-0.4-0.2-0.7-0.3-1-0.6c-0.9,0.9-3,2.4-6.3,2.4c-0.9,0-2-0.1-3.2-0.4
		c-0.2,0.2-0.5,0.5-0.9,0.7c1.1,0.9,2.1,2.6,2,4.9c0,0-1.1-3.5-3.6-4.2c-0.8,0.2-1.7,0.4-2.7,0.4c-0.3,0-0.6,0-1-0.1l0,0
		c0,0-3.7,2.7-0.6,7.6c0,0-5.1-4-1-7.8c-0.2-0.1-0.5-0.1-0.7-0.2c0,0-3.8-1.3-3.2-5.1c0,0,0.3,2.8,3.6,3.5c4.4,1.2,6.6-0.5,7.2-1.1
		c-0.1-2.6-3.8-4.4-3.8-4.4c0.1,0,1.7-0.3,3.2,0.7c1,0.7,1.7,1.8,2,3.4c4.8,1.2,7.4-1.1,8.1-1.8c-0.4-4.4,3.3-6.7,5.4-7.3
		c0,0-4.1,2.9-3.7,7.1c2.5,2.2,7.2,0.2,7.2,0.2l0.6-0.2l0,0c2.9-1.3,3.7-3.8,3.7-3.8c0.3,2.7-1.2,4.3-2.6,5.1
		c2.5,2.2,5.1,0.3,5.2,0.2l0.2-0.1c0,0,2-1.6,1.1-4.2c0,0,1.5,1.4,0.6,3.9c2.5-0.6,7.3-2.4,7-6.7v-0.4l0.3-0.3
		c0.2-0.2,5.9-5.4,1.2-11c0,0,4.1,2.8,2.5,7.8c2.6,0.4,3.7,2.8,3.9,4.1c0,0-1.6-3-4.6-2.6c-0.4,0.8-1,1.7-1.7,2.6
		C236.5,117.2,234.8,119.6,231.5,121.1z M246.7,123.8c-0.3,0-0.7,0-1-0.1c0,0.8,0,1.5-0.1,2.1c-0.4,2.5-1.6,4.2-1.6,4.3
		c0,0,2.4-6.3-1.9-11.3c-0.2,2.3-1.4,6.8-8.5,8.4c0,0,5-2.1,6.3-6.3c0.6-1.8,0.5-3.2,0.5-3.2l-0.1-0.8l0.8-0.1c0.1,0,1.5-0.4,2.5-2
		c1.8-2.6,0.6-8.9,0.6-8.9c1.8,4.1,2.1,7.4,0.9,9.7c-0.5,1-1.2,1.6-1.9,2c1.4,1.5,2.1,3.1,2.4,4.6c1.6,1.1,5.6,0.3,5.6,0.3
		C251,122.6,249,123.8,246.7,123.8z"/>
	
		<linearGradient id="SVGID_12_" gradientUnits="userSpaceOnUse" x1="250.2046" y1="261.5249" x2="211.6606" y2="182.4979" gradientTransform="matrix(1 0 0 -1 0 332)">
		<stop  offset="0" style="stop-color:#E84FFF"/>
		<stop  offset="0.9381" style="stop-color:#02E1FF"/>
	</linearGradient>
	<path class="st11" d="M214.7,135.8c-0.6-0.1-1.1-0.3-1.6-0.4c0.1,0.9,0.4,2.3,1.9,3.5l0.4,0.3v0.1c0.3,0.1,0.6,0.3,0.7,0.3
		c0.8,0.2,0.9,1,1,1.5c0,0.2,0.1,0.4,0.1,0.4c0.4,0.7,0.3,1.6,0.2,2.4c0,0.2,0,0.4,0,0.5c0.5,0.4,1.1,0.7,1.7,1
		c-0.1-2.3-0.5-4.1-1.3-5.9C217,137.8,216,136.8,214.7,135.8z"/>
	
		<linearGradient id="SVGID_13_" gradientUnits="userSpaceOnUse" x1="262.0027" y1="237.7648" x2="214.2512" y2="139.8596" gradientTransform="matrix(1 0 0 -1 0 332)">
		<stop  offset="0" style="stop-color:#E84FFF"/>
		<stop  offset="0.9381" style="stop-color:#02E1FF"/>
	</linearGradient>
	<path class="st12" d="M239.7,138.1c-0.3,0-0.6,0-0.8,0c0.9,1,1.2,2.4,1.4,3.7c0.3-0.3,0.5-0.7,0.7-1c-0.1-0.9-0.4-1.4-0.9-2.2
		C240,138.5,239.9,138.3,239.7,138.1z"/>
	
		<linearGradient id="SVGID_14_" gradientUnits="userSpaceOnUse" x1="254.4482" y1="220.4677" x2="224.219" y2="158.4886" gradientTransform="matrix(1 0 0 -1 0 332)">
		<stop  offset="0" style="stop-color:#E84FFF"/>
		<stop  offset="0.9381" style="stop-color:#02E1FF"/>
	</linearGradient>
	<path class="st13" d="M240.7,138.2c0.4,0.5,0.7,1,0.9,1.6c0.3-0.6,0.5-1.3,0.7-2c-0.5,0.1-1.1,0.2-1.7,0.2
		C240.6,138.1,240.6,138.2,240.7,138.2z"/>
</g>
</svg>
