<?xml version="1.0" encoding="utf-8"?>
<!-- Generator: Adobe Illustrator 21.0.0, SVG Export Plug-In . SVG Version: 6.00 Build 0)  -->
<svg version="1.1" id="Layer_1" xmlns="http://www.w3.org/2000/svg" xmlns:xlink="http://www.w3.org/1999/xlink" x="0px" y="0px"
	 viewBox="0 0 800 500" enable-background="new 0 0 800 500" xml:space="preserve">
<g>
	
		<linearGradient id="SVGID_1_" gradientUnits="userSpaceOnUse" x1="-4.4751" y1="-231.3937" x2="645.0377" y2="207.9314" gradientTransform="matrix(0.9943 0.107 0.107 -0.9943 171.4296 197.8068)">
		<stop  offset="0" style="stop-color:#B37CFF"/>
		<stop  offset="1" style="stop-color:#F895E7"/>
	</linearGradient>
	<path opacity="0.42" fill="url(#SVGID_1_)" enable-background="new    " d="M12.8,310c12,95.8,131.9,102.4,256.8,85.1
		c178-24.7,211.5,164.1,411.1,74.6C823.4,405.7,899-5.9,407.8,39.3c-122.5,11.3-194.1,19.5-267.5,61.3
		C77.3,136.4,3.8,238.7,12.8,310z"/>
	
		<linearGradient id="SVGID_2_" gradientUnits="userSpaceOnUse" x1="147.1765" y1="26.2717" x2="920.7923" y2="554.1509" gradientTransform="matrix(1 0 0 -1 0 500)">
		<stop  offset="0" style="stop-color:#B37CFF"/>
		<stop  offset="1" style="stop-color:#F895E7"/>
	</linearGradient>
	<path opacity="0.62" fill="url(#SVGID_2_)" enable-background="new    " d="M36.1,262.8c-49.5,113.8,86.2,166,204,130.7
		c220.4-66.1,304,162.6,464.2,45.5C827,349.4,831,36,511.7,43.9C334.7,48.4,119.8,70.3,36.1,262.8z"/>
</g>
<g>
	<g opacity="0.67">
		
			<linearGradient id="SVGID_3_" gradientUnits="userSpaceOnUse" x1="-756.9668" y1="-2481.5938" x2="-981.0119" y2="-2570.3923" gradientTransform="matrix(-4.100000e-03 -1 -1 4.100000e-03 -2314.3528 -733.2233)">
			<stop  offset="0" style="stop-color:#FDF53F"/>
			<stop  offset="0.6645" style="stop-color:#E57A58"/>
			<stop  offset="1" style="stop-color:#D93C65"/>
		</linearGradient>
		<path fill="url(#SVGID_3_)" d="M225,267.1c0,0,37.7-53.6,32.1-127.9s-36.9-92-44.7-94.8c-7.8-2.7-35.9,5.8-31.8,27.9
			c4.1,22.1,11.4,27.1,31.7,33.8s-2.5,18.2-7.7,24.9c-5.2,6.7-2.6,22,14.5,16c17.1-6,26.8,3.3,13,16.6
			c-13.8,13.3-17.2,12.5-14.2,21.2c2.9,8.7,18.6,5.4,21,28.3C241.2,235.9,225,267.1,225,267.1z"/>
		<path opacity="0.6" fill="#FFFFFF" enable-background="new    " d="M242,226.3c0,0,33.1-90-12.6-157.4
			C229.5,68.9,270.2,124.6,242,226.3z"/>
	</g>
	<g opacity="0.64">
		
			<linearGradient id="SVGID_4_" gradientUnits="userSpaceOnUse" x1="30.9441" y1="-1648.0565" x2="140.2185" y2="-1648.0565" gradientTransform="matrix(0.5422 -0.8402 -0.8402 -0.5422 -1245.9456 -664.4686)">
			<stop  offset="0" style="stop-color:#CB236D"/>
			<stop  offset="1" style="stop-color:#4C246D"/>
		</linearGradient>
		<path fill="url(#SVGID_4_)" d="M240.4,253.7c0,0-1.9-25.1-27.6-50s-40.6-35.9-50.8-56.9c-10.2-21-3.8-74.3-21.1-83.1
			S119.2,79.4,124,95.6s9.3,17.9-8.7,16.9c-18-1-20.5,25.9-0.7,40.2c19.8,14.4,21.9,13.3,20.4,29.4s31.5,22.5,50.6,25.1
			s45.2,19.3,53.3,45.7L240.4,253.7z"/>
		<path opacity="0.6" fill="#FFFFFF" enable-background="new    " d="M216.2,214.1c2.1,1.2-78-33.6-71.5-83
			C144.7,131.1,149.1,176.4,216.2,214.1z"/>
	</g>
	<g>
		
			<linearGradient id="SVGID_5_" gradientUnits="userSpaceOnUse" x1="655.7553" y1="453.5082" x2="35.7326" y2="-110.7977" gradientTransform="matrix(1 0 0 -1 0 500)">
			<stop  offset="0" style="stop-color:#A737D5"/>
			<stop  offset="1" style="stop-color:#EF497A"/>
		</linearGradient>
		<path fill="url(#SVGID_5_)" d="M218.2,375.5c0,0,68.8,104.5,197.8,99.2c129.1-5.4,116.7-47,109.6-66.9
			c-7.2-19.9-19-51.7,32.1-50.3c51.2,1.4,68.9-22.5,80-47.9c11.2-25.5,12.8-59.5-9.8-89.2s-33.2-49.2-5.4-66.5
			c27.8-17.3,63-64.6,19.7-108.3C598.9,1.6,550,8.4,508,29.5s-49.9,45.3-83.3,27.7S340.4,24,329.9,82.1
			c-26.8,147.4-24.3,169.8-82,195.9C190.1,304.2,218.2,375.5,218.2,375.5z"/>
		
			<linearGradient id="SVGID_6_" gradientUnits="userSpaceOnUse" x1="237.1851" y1="304.6493" x2="681.4041" y2="304.6493" gradientTransform="matrix(1 0 0 -1 0 500)">
			<stop  offset="0" style="stop-color:#A737D5"/>
			<stop  offset="1" style="stop-color:#EF497A"/>
		</linearGradient>
		<path opacity="0.4" fill="url(#SVGID_6_)" enable-background="new    " d="M237.2,329.8c0,0,101.5-18.1,129.7-102.4
			S412.7,56.2,527.5,50.8c55.9-2.6,87.9-4.5,106.8-9.6c21.4-5.7,43,8.6,45.8,30.6c5.2,40.4-2.7,89.6-62.1,109.9
			c-108.8,37.2-134.8,103.5-228.6,149.1S237.2,329.8,237.2,329.8z"/>
		
			<linearGradient id="SVGID_7_" gradientUnits="userSpaceOnUse" x1="241.3305" y1="230.5527" x2="651.0404" y2="230.5527" gradientTransform="matrix(1 0 0 -1 0 500)">
			<stop  offset="0" style="stop-color:#A737D5"/>
			<stop  offset="1" style="stop-color:#EF497A"/>
		</linearGradient>
		<path fill="url(#SVGID_7_)" d="M241.3,337.6c0,0,62.8,18.5,110.8-18.6s92.8-72,159.7-66.9c89.3,6.8,114.1-86.9,114.1-86.9
			s82.7,175.8-52,143.6C459.3,281.4,333.2,442.8,241.3,337.6z"/>
		<g opacity="0.81">
			
				<linearGradient id="SVGID_8_" gradientUnits="userSpaceOnUse" x1="-1726.4014" y1="308.8419" x2="-1892.7462" y2="81.0219" gradientTransform="matrix(0.6035 -0.7973 0.7973 0.6035 1369.5367 -1141.5359)">
				<stop  offset="0" style="stop-color:#CB236D"/>
				<stop  offset="1" style="stop-color:#4C246D"/>
			</linearGradient>
			<path fill="url(#SVGID_8_)" d="M248.5,367.8c0,0,72.2,173.2,317.4,60.8c0,0-66.5-41.7-156.8-27.9S274.2,401,248.5,367.8z"/>
			<path fill="#FFFFFF" d="M485,430.3c0,0-0.9,0.4-2.6,1c-1.7,0.6-4.1,1.5-7.3,2.5c-3.2,1-7.1,2.1-11.6,3.2
				c-4.5,1.1-9.7,2.2-15.3,3.1c-5.7,0.9-11.8,1.7-18.4,2.2c-3.3,0.3-6.6,0.4-10.1,0.6c-1.7,0.1-3.5,0.1-5.2,0.1
				c-1.8,0-3.5,0.1-5.3,0c-1.8,0-3.6-0.1-5.4-0.1c-1.8,0-3.7-0.2-5.5-0.3c-3.7-0.2-7.4-0.6-11.2-1c-1.9-0.2-3.7-0.5-5.6-0.8
				c-1.9-0.3-3.8-0.5-5.6-0.9c-1.9-0.4-3.8-0.7-5.6-1.1l-2.8-0.6c-0.9-0.2-1.9-0.4-2.8-0.7c-3.7-0.9-7.5-1.8-11.1-2.9
				c-1.8-0.5-3.7-1.1-5.5-1.6c-1.8-0.6-3.6-1.2-5.4-1.9c-1.8-0.6-3.6-1.2-5.3-1.9c-1.7-0.7-3.5-1.4-5.2-2.1c-0.9-0.4-1.7-0.7-2.6-1
				l-1.3-0.5l-1.2-0.6c-1.7-0.8-3.3-1.5-4.9-2.3c-0.8-0.4-1.6-0.8-2.4-1.1c-0.8-0.4-1.6-0.8-2.4-1.2c-1.5-0.8-3.1-1.7-4.6-2.5
				c-1.5-0.8-3-1.6-4.5-2.5c-1.4-0.9-2.9-1.7-4.3-2.6c-5.7-3.3-10.7-7-15.4-10.2c-2.3-1.7-4.4-3.4-6.5-5c-1-0.8-2-1.6-3-2.3
				c-0.9-0.8-1.8-1.6-2.7-2.4c-1.8-1.5-3.4-2.9-4.9-4.3c-0.8-0.7-1.5-1.3-2.2-1.9c-0.7-0.6-1.3-1.2-1.9-1.8
				c-4.8-4.6-7.5-7.3-7.5-7.3c-0.1-0.1-0.1-0.4,0-0.5c0.1-0.1,0.4-0.1,0.5,0l0,0c0,0,2.9,2.5,7.9,6.9c0.6,0.6,1.3,1.1,2,1.7
				c0.7,0.6,1.5,1.2,2.2,1.8c1.6,1.2,3.2,2.6,5.1,4c0.9,0.7,1.8,1.5,2.8,2.2c1,0.7,2,1.4,3.1,2.2c2.1,1.5,4.3,3.1,6.6,4.8
				c4.8,3.1,9.8,6.6,15.5,9.7c1.4,0.8,2.8,1.6,4.3,2.5c1.5,0.8,3,1.5,4.5,2.3c1.5,0.8,3,1.5,4.6,2.3c1.5,0.8,3.2,1.5,4.8,2.2
				c1.6,0.7,3.2,1.5,4.9,2.2l1.2,0.6l1.3,0.5c0.8,0.3,1.7,0.7,2.5,1c1.7,0.7,3.4,1.3,5.1,2s3.5,1.2,5.2,1.8c1.8,0.6,3.5,1.2,5.3,1.8
				c1.8,0.5,3.6,1,5.4,1.6c3.6,1.1,7.3,1.9,10.9,2.8c0.9,0.2,1.8,0.5,2.7,0.6l2.8,0.5c1.8,0.4,3.7,0.7,5.5,1.1
				c1.8,0.3,3.7,0.6,5.5,0.9c1.8,0.3,3.7,0.6,5.5,0.8c3.7,0.4,7.3,0.9,11,1.1c1.8,0.1,3.6,0.3,5.4,0.4s3.6,0.1,5.3,0.2
				c1.8,0.1,3.5,0.1,5.3,0.1c1.7,0,3.5,0,5.2,0c3.4-0.1,6.7-0.1,10-0.3c6.5-0.3,12.6-1,18.2-1.7c2.8-0.4,5.5-0.8,8-1.2
				c2.6-0.4,5-0.9,7.2-1.3c4.5-0.9,8.4-1.8,11.6-2.6c6.4-1.6,10-2.9,10-2.9c0.2-0.1,0.4,0,0.5,0.2C485.3,430,485.2,430.2,485,430.3z
				"/>
		</g>
		<g opacity="0.81">
			
				<linearGradient id="SVGID_9_" gradientUnits="userSpaceOnUse" x1="-1926.9905" y1="1177.0894" x2="-1738.0688" y2="1177.0894" gradientTransform="matrix(0.1958 -0.9806 0.9806 0.1958 -519.2128 -1868.3513)">
				<stop  offset="0" style="stop-color:#CB236D"/>
				<stop  offset="1" style="stop-color:#4C246D"/>
			</linearGradient>
			<path fill="url(#SVGID_9_)" d="M254.7,251.1c0,0,51.9-26,42.5-104.3c-6.3-52.2,2.7-71.2,7.2-77.2c0.5-0.7-0.2-1.6-1-1.3
				c-10,3.9-40.2,19.5-48.7,70C244.3,199.3,268.1,223.4,254.7,251.1z"/>
			<path fill="#FFFFFF" d="M263.8,244.4c0,0,0.2-0.6,0.7-1.7c0.4-1.1,1.1-2.7,1.9-4.8c0.8-2.1,1.7-4.6,2.7-7.4c0.9-2.9,2-6.2,3-9.8
				c1-3.6,2.1-7.5,2.9-11.7c0.9-4.2,1.7-8.6,2.3-13.2c0.6-4.6,1.1-9.4,1.2-14.2c0.1-4.8,0-9.8-0.5-14.6c-0.5-4.9-1.4-9.7-2.7-14.3
				c-0.6-2.4-1.2-4.8-1.8-7.2c-0.7-2.3-1-4.8-1.4-7.2c-0.1-0.6-0.2-1.2-0.3-1.8c-0.1-0.6-0.2-1.2-0.2-1.8c-0.1-1.2-0.2-2.4-0.3-3.5
				c-0.1-0.6-0.1-1.2-0.2-1.7s-0.1-1.1-0.1-1.7c0-1.1,0-2.3-0.1-3.4c0-4.4,0.5-8.7,1.2-12.5c0.1-1,0.5-1.9,0.7-2.8
				c0.3-0.9,0.4-1.8,0.7-2.6c0.3-0.8,0.6-1.7,0.9-2.4c0.1-0.4,0.3-0.8,0.4-1.2c0.2-0.4,0.3-0.7,0.5-1.1c0.3-0.7,0.7-1.4,1-2.1
				c0.4-0.6,0.7-1.3,1.1-1.8c0.6-1.2,1.4-2.2,2.1-3.1c1.4-1.8,2.6-3.1,3.5-3.9c0.4-0.4,0.8-0.7,1.1-0.9c0.2-0.2,0.4-0.3,0.4-0.3l0,0
				c0.2-0.1,0.4-0.1,0.5,0.1c0.1,0.2,0.1,0.4-0.1,0.5c0,0-0.1,0.1-0.3,0.3c-0.2,0.2-0.5,0.5-0.9,1c-0.8,0.9-1.8,2.2-2.9,4.1
				c-0.5,1-1.2,1.9-1.7,3.2c-0.3,0.6-0.5,1.2-0.8,1.8c-0.2,0.7-0.5,1.3-0.7,2c-0.1,0.4-0.3,0.7-0.4,1.1c-0.1,0.4-0.2,0.7-0.3,1.1
				c-0.2,0.8-0.4,1.6-0.6,2.4s-0.3,1.7-0.5,2.5c-0.1,0.9-0.4,1.7-0.4,2.7c-0.4,3.7-0.6,7.6-0.3,11.8c0.1,1.1,0.1,2.1,0.2,3.2
				c0,0.5,0.1,1.1,0.2,1.6c0.1,0.5,0.2,1.1,0.2,1.6c0.2,1.1,0.3,2.2,0.5,3.3c0.1,0.6,0.2,1.1,0.3,1.7c0.1,0.6,0.2,1.1,0.4,1.7
				c0.5,2.2,0.9,4.5,1.6,6.8c0.7,2.3,1.3,4.7,2,7c0.3,1.2,0.7,2.5,1,3.7c0.3,1.3,0.6,2.5,0.9,3.8c0.2,1.3,0.4,2.5,0.7,3.8
				c0.2,1.3,0.4,2.6,0.5,3.8c0.6,5.1,0.8,10.3,0.7,15.4c-0.2,5.1-0.7,10.1-1.4,14.8c-0.8,4.8-1.8,9.3-3,13.5
				c-1.2,4.2-2.5,8.2-3.8,11.8c-1.4,3.6-2.7,6.8-4,9.6c-1.3,2.8-2.5,5.2-3.6,7.2c-1.1,2-2,3.5-2.6,4.5c-0.6,1-1,1.5-1,1.5
				c-0.1,0.2-0.3,0.2-0.5,0.1C263.8,244.8,263.7,244.6,263.8,244.4L263.8,244.4z"/>
		</g>
		<g>
			
				<linearGradient id="SVGID_10_" gradientUnits="userSpaceOnUse" x1="237.6875" y1="341.3222" x2="261.497" y2="294.1795" gradientTransform="matrix(0.9935 0.1142 0.1142 -0.9935 74.5278 639.2311)">
				<stop  offset="0" style="stop-color:#53D8FF"/>
				<stop  offset="1" style="stop-color:#3840F7"/>
			</linearGradient>
			<path fill="url(#SVGID_10_)" d="M363.5,343.8c-0.5,4.5-4.6,7.7-9.1,7.2c-4.5-0.5-7.7-4.6-7.2-9.1c0.5-4.5,4.6-7.7,9.1-7.2
				C360.8,335.2,364,339.3,363.5,343.8z"/>
			<g>
				
					<linearGradient id="SVGID_11_" gradientUnits="userSpaceOnUse" x1="271.2158" y1="361.2084" x2="308.3586" y2="294.0657" gradientTransform="matrix(0.9935 0.1142 0.1142 -0.9935 74.5278 639.2311)">
					<stop  offset="0" style="stop-color:#FDF53F"/>
					<stop  offset="0.6645" style="stop-color:#E57A58"/>
					<stop  offset="1" style="stop-color:#D93C65"/>
				</linearGradient>
				<circle fill="url(#SVGID_11_)" cx="396.1" cy="337.8" r="23"/>
				<path opacity="0.5" fill="#FFFFFF" enable-background="new    " d="M388.8,320.6c-3.3,2.9-12.4,13.1-3.2,10.6
					S393.2,316.8,388.8,320.6z"/>
				<path opacity="0.5" fill="#FFFFFF" enable-background="new    " d="M380.8,337.5c-1.5,2.2-2.6,10.4,3.5,12.9
					C390.4,352.9,382.3,335.3,380.8,337.5z"/>
				<path opacity="0.5" fill="#FFFFFF" enable-background="new    " d="M389.8,332.3c-2.4,2.3-3.6,4.9,0.7,7.2
					C394.9,341.9,392.3,330.1,389.8,332.3z"/>
				<path opacity="0.5" fill="#FFFFFF" enable-background="new    " d="M395.6,349.3c-3.8,0.6-7.6,4.8-0.7,6.3
					C401.7,357.1,401.7,348.2,395.6,349.3z"/>
			</g>
			<g>
				
					<linearGradient id="SVGID_12_" gradientUnits="userSpaceOnUse" x1="401.3647" y1="424.3358" x2="476.3649" y2="468.6215" gradientTransform="matrix(0.9935 0.1142 0.1142 -0.9935 74.5278 639.2311)">
					<stop  offset="0" style="stop-color:#53D8FF"/>
					<stop  offset="1" style="stop-color:#3840F7"/>
				</linearGradient>
				<path fill="url(#SVGID_12_)" d="M579.3,253.7c-1.6,13.7-15.5,23.3-31,21.6c-15.6-1.8-26.9-14.3-25.3-28
					c1.6-13.7,15.5-23.3,31-21.6C569.5,227.4,580.8,240,579.3,253.7z"/>
				
					<linearGradient id="SVGID_13_" gradientUnits="userSpaceOnUse" x1="439.9459" y1="468.285" x2="380.6616" y2="418.0481" gradientTransform="matrix(0.9935 0.1142 0.1142 -0.9935 74.5278 639.2311)">
					<stop  offset="0" style="stop-color:#53D8FF"/>
					<stop  offset="1" style="stop-color:#3840F7"/>
				</linearGradient>
				<path fill="url(#SVGID_13_)" d="M541.8,230.3c-7.5,3.9-17.1,8.2-11.7,20.7c5.4,12.5,11-8.4,16.2-12.9
					C551.4,233.7,547.8,227.2,541.8,230.3z"/>
				
					<linearGradient id="SVGID_14_" gradientUnits="userSpaceOnUse" x1="451.9782" y1="454.0869" x2="392.6935" y2="403.8496" gradientTransform="matrix(0.9935 0.1142 0.1142 -0.9935 74.5278 639.2311)">
					<stop  offset="0" style="stop-color:#53D8FF"/>
					<stop  offset="1" style="stop-color:#3840F7"/>
				</linearGradient>
				<path fill="url(#SVGID_14_)" d="M542.7,256.2c-5.2,1.5-5.8,3.9-1.1,9.5C546.4,271.2,547.9,254.7,542.7,256.2z"/>
				
					<linearGradient id="SVGID_15_" gradientUnits="userSpaceOnUse" x1="459.2" y1="445.5665" x2="399.914" y2="395.3282" gradientTransform="matrix(0.9935 0.1142 0.1142 -0.9935 74.5278 639.2311)">
					<stop  offset="0" style="stop-color:#53D8FF"/>
					<stop  offset="1" style="stop-color:#3840F7"/>
				</linearGradient>
				<path fill="url(#SVGID_15_)" d="M558.4,261.1c-9.3,2-10.2,6.6-3.2,8.2C562.3,270.9,569.2,258.8,558.4,261.1z"/>
			</g>
			<g>
				
					<linearGradient id="SVGID_16_" gradientUnits="userSpaceOnUse" x1="440.6874" y1="492.1385" x2="471.7515" y2="492.1385" gradientTransform="matrix(0.9935 0.1142 0.1142 -0.9935 74.5278 639.2311)">
					<stop  offset="0" style="stop-color:#CB236D"/>
					<stop  offset="1" style="stop-color:#4C246D"/>
				</linearGradient>
				<path fill="url(#SVGID_16_)" d="M599.4,204.2c-1,8.5-8.7,14.6-17.2,13.7c-8.5-1-14.6-8.7-13.7-17.2c1-8.5,8.7-14.6,17.2-13.7
					C594.3,187.9,600.4,195.6,599.4,204.2z"/>
				<path opacity="0.18" fill="#FFFFFF" enable-background="new    " d="M599.1,199c-6.4,5.7-3-0.9-7-4.3
					c-4.6-3.8-13.4,10.1-9.2-2.1c0.8-2.3,1.3-4.2,1.5-5.7c-1.9-0.1-3.8,0.2-5.5,0.8c1.4,1.9,1.7,5.1-0.7,10.6
					c-6.8,15.4-0.4,15.8,3.3,7.6s11.7-9.9,8.7-0.9c-2.7,8,2.3,8.8,9.2-0.1c0-0.2,0.1-0.5,0.1-0.7C599.6,202.4,599.5,200.6,599.1,199
					z"/>
			</g>
			<g>
				
					<linearGradient id="SVGID_17_" gradientUnits="userSpaceOnUse" x1="328.7837" y1="405.6297" x2="381.6404" y2="348.9635" gradientTransform="matrix(0.9935 0.1142 0.1142 -0.9935 74.5278 639.2311)">
					<stop  offset="0" style="stop-color:#FDF53F"/>
					<stop  offset="0.6645" style="stop-color:#E57A58"/>
					<stop  offset="1" style="stop-color:#D93C65"/>
				</linearGradient>
				<path fill="url(#SVGID_17_)" d="M511.7,317c-2,17.6-19.4,30.1-38.9,27.8c-19.4-2.2-33.6-18.3-31.5-35.9
					c2-17.6,19.4-30.1,38.9-27.8C499.6,283.3,513.7,299.4,511.7,317z"/>
				
					<linearGradient id="SVGID_18_" gradientUnits="userSpaceOnUse" x1="368.7134" y1="361.4946" x2="422.2823" y2="297.9262" gradientTransform="matrix(0.9935 0.1142 0.1142 -0.9935 74.5278 639.2311)">
					<stop  offset="0" style="stop-color:#53D8FF"/>
					<stop  offset="1" style="stop-color:#3840F7"/>
				</linearGradient>
				<path fill="url(#SVGID_18_)" d="M442,327.6c0,0-11.9,5.6-10.7,18.4c1.2,12.8,41.6,5.8,60.8-9.9c19.1-15.7,38.9-32.6,35.4-46.2
					c-3.5-13.7-24.9,0-24.9,0s30.5,7.1-18.7,38.5C433.7,360.5,442,327.6,442,327.6z"/>
				<path opacity="0.5" fill="#FFFFFF" enable-background="new    " d="M453.1,326.7c0.2,1.3-1.5,1.9-2.1,0.8
					c-3.4-6.4-6.7-17,0-28.8c6.5-11.6,19-12.9,27.7-12.3c1.3,0.1,1.4,2,0.1,2.2c-7.4,1-17.1,3.7-21.1,10.8
					C451.5,310.1,451.9,320.3,453.1,326.7z"/>
				<path opacity="0.5" fill="#FFFFFF" enable-background="new    " d="M438.2,335.7c0.4-1.6-16.3,27.2,44,3.2
					C482.2,339,433,355.7,438.2,335.7z"/>
				<path opacity="0.5" fill="#FFFFFF" enable-background="new    " d="M509.7,290.5c0,0,31.3-13.3-1.6,26.6
					C508.1,317.1,530,285.8,509.7,290.5z"/>
			</g>
		</g>
		<g>
			
				<linearGradient id="SVGID_19_" gradientUnits="userSpaceOnUse" x1="386.896" y1="420.7223" x2="412.6353" y2="420.7223" gradientTransform="matrix(1 0 0 -1 0 500)">
				<stop  offset="0" style="stop-color:#F9B776"/>
				<stop  offset="1" style="stop-color:#F47960"/>
			</linearGradient>
			<path fill="url(#SVGID_19_)" d="M412.6,96.1L406,89c-1.5-1.6-2.3-3.7-2.2-5.9l0.6-25.5c0-0.8-0.7-1.4-1.5-1.2
				c-2.5,0.5-6.6,4.3-7,26c0,0.9-0.9,1.5-1.7,1.1c-1.9-0.8-4.7-1.9-6.3-1.7c-1,0.2-1.3,1.6-0.4,2.1l13.1,8.4l7.9,9.9L412.6,96.1z"/>
			
				<linearGradient id="SVGID_20_" gradientUnits="userSpaceOnUse" x1="590.9926" y1="408.7867" x2="616.7318" y2="408.7867" gradientTransform="matrix(1 0 0 -1 0 500)">
				<stop  offset="0" style="stop-color:#F9B776"/>
				<stop  offset="1" style="stop-color:#F47960"/>
			</linearGradient>
			<path fill="url(#SVGID_20_)" d="M591,108.1l6.6-7.1c1.5-1.6,2.3-3.7,2.2-5.9l-0.6-25.5c0-0.8,0.7-1.4,1.5-1.2
				c2.5,0.5,6.6,4.3,7,26c0,0.9,0.9,1.5,1.7,1.1c1.9-0.8,4.7-1.9,6.3-1.7c1,0.2,1.3,1.6,0.4,2.1l-13.1,8.4l-7.9,9.9L591,108.1z"/>
			
				<linearGradient id="SVGID_21_" gradientUnits="userSpaceOnUse" x1="361.9279" y1="394.7094" x2="411.88" y2="394.7094" gradientTransform="matrix(1 0 0 -1 0 500)">
				<stop  offset="0" style="stop-color:#53D8FF"/>
				<stop  offset="1" style="stop-color:#3840F7"/>
			</linearGradient>
			<path fill="url(#SVGID_21_)" d="M393.6,99c-7.8,1.2-18.7,4.1-31.3,11.1c-0.8,0.4-0.4,1.7,0.5,1.6c10.3-0.5,40-2.3,49-5l0,0
				C407.7,101,400.7,98,393.6,99z"/>
			
				<linearGradient id="SVGID_22_" gradientUnits="userSpaceOnUse" x1="360.2281" y1="375.5776" x2="422.665" y2="375.5776" gradientTransform="matrix(1 0 0 -1 0 500)">
				<stop  offset="0" style="stop-color:#53D8FF"/>
				<stop  offset="1" style="stop-color:#3840F7"/>
			</linearGradient>
			<path fill="url(#SVGID_22_)" d="M422.7,115.5c0,0-35.7-4.7-62.1,16.5c-0.7,0.6-0.2,1.8,0.7,1.7
				C372.8,132.3,412.9,126.4,422.7,115.5z"/>
			
				<linearGradient id="SVGID_23_" gradientUnits="userSpaceOnUse" x1="379.137" y1="356.7805" x2="435.312" y2="356.7805" gradientTransform="matrix(1 0 0 -1 0 500)">
				<stop  offset="0" style="stop-color:#53D8FF"/>
				<stop  offset="1" style="stop-color:#3840F7"/>
			</linearGradient>
			<path fill="url(#SVGID_23_)" d="M379.4,162c6.5-7.9,28.4-33.1,47.7-39.3l8.3,11.7c0,0-28.5,22.6-54.9,29.3
				C379.5,163.9,378.7,162.8,379.4,162z"/>
			
				<linearGradient id="SVGID_24_" gradientUnits="userSpaceOnUse" x1="399.9032" y1="338.2387" x2="451.3842" y2="338.2387" gradientTransform="matrix(1 0 0 -1 0 500)">
				<stop  offset="0" style="stop-color:#53D8FF"/>
				<stop  offset="1" style="stop-color:#3840F7"/>
			</linearGradient>
			<path fill="url(#SVGID_24_)" d="M400.1,179.8c5-8.6,20.3-32.1,42.1-38.2l9.2,13.3c0,0-32.3,20.3-49.6,26.9
				C400.6,182.2,399.4,180.9,400.1,179.8z"/>
			
				<linearGradient id="SVGID_25_" gradientUnits="userSpaceOnUse" x1="431.1214" y1="321.7742" x2="462.7928" y2="321.7742" gradientTransform="matrix(1 0 0 -1 0 500)">
				<stop  offset="0" style="stop-color:#53D8FF"/>
				<stop  offset="1" style="stop-color:#3840F7"/>
			</linearGradient>
			<path fill="url(#SVGID_25_)" d="M453.7,157.3c0,0-18.3,19.1-22.6,39.9c-0.3,1.5,1.3,2.6,2.6,1.8c6.5-3.9,21.2-14.1,29.1-29.5
				L453.7,157.3z"/>
			
				<linearGradient id="SVGID_26_" gradientUnits="userSpaceOnUse" x1="551.6113" y1="296.2658" x2="508.9478" y2="365.8479" gradientTransform="matrix(1 0 0 -1 0 500)">
				<stop  offset="0" style="stop-color:#53D8FF"/>
				<stop  offset="1" style="stop-color:#3840F7"/>
			</linearGradient>
			<path fill="url(#SVGID_26_)" d="M529.4,178.2c0.3,1.2,17.5,28.5,23.6,38.1c0.5,0.8,1.8,0.4,1.7-0.6c-1.2-9-5.1-31.3-17.5-45
				L529.4,178.2z"/>
			
				<linearGradient id="SVGID_27_" gradientUnits="userSpaceOnUse" x1="569.7765" y1="307.4036" x2="527.1129" y2="376.9858" gradientTransform="matrix(1 0 0 -1 0 500)">
				<stop  offset="0" style="stop-color:#53D8FF"/>
				<stop  offset="1" style="stop-color:#3840F7"/>
			</linearGradient>
			<path fill="url(#SVGID_27_)" d="M540.5,164.6c0,0,25.1,18.7,34.6,27.3c1,0.9,2.6-0.1,2.2-1.4c-2.3-8.2-8.7-25-24.6-35.4
				L540.5,164.6z"/>
			
				<linearGradient id="SVGID_28_" gradientUnits="userSpaceOnUse" x1="593.8798" y1="322.1823" x2="551.2162" y2="391.7644" gradientTransform="matrix(1 0 0 -1 0 500)">
				<stop  offset="0" style="stop-color:#53D8FF"/>
				<stop  offset="1" style="stop-color:#3840F7"/>
			</linearGradient>
			<path fill="url(#SVGID_28_)" d="M563.3,146.1c0,0,8.5,18.4,32.4,23.7c1.7,0.4,3-1.4,2.3-2.9c-3.8-7.8-13.7-25.8-27.6-30.2
				L563.3,146.1z"/>
			
				<linearGradient id="SVGID_29_" gradientUnits="userSpaceOnUse" x1="611.6918" y1="333.1035" x2="569.0282" y2="402.6859" gradientTransform="matrix(1 0 0 -1 0 500)">
				<stop  offset="0" style="stop-color:#53D8FF"/>
				<stop  offset="1" style="stop-color:#3840F7"/>
			</linearGradient>
			<path fill="url(#SVGID_29_)" d="M578.5,130.2c0,0,19.2,9.3,28.8,18.5c0.8,0.7,2,0,1.7-1c-2.2-7.2-8.7-21.8-25.7-23.9L578.5,130.2
				z"/>
			
				<linearGradient id="SVGID_30_" gradientUnits="userSpaceOnUse" x1="301.8632" y1="249.3948" x2="336.7623" y2="249.3948" gradientTransform="matrix(1 0 0 -1 0 500)">
				<stop  offset="0" style="stop-color:#2B3582"/>
				<stop  offset="1" style="stop-color:#150E42"/>
			</linearGradient>
			<path fill="url(#SVGID_30_)" d="M336.8,249.8L333,244c-1.4-1.6-3.7-2-5.6-1c-5.4,3.2-16.6,9.5-24.9,11.8c-1,0.3-1,1.6,0,1.9
				C308.7,258.8,322.5,262.2,336.8,249.8z"/>
			
				<linearGradient id="SVGID_31_" gradientUnits="userSpaceOnUse" x1="330.272" y1="244.8721" x2="341.4435" y2="244.8721" gradientTransform="matrix(1 0 0 -1 0 500)">
				<stop  offset="0" style="stop-color:#F9B776"/>
				<stop  offset="1" style="stop-color:#F47960"/>
			</linearGradient>
			<path fill="url(#SVGID_31_)" d="M340.7,254.3l-4-4.5c0,0-3.8-1.3-6.5,4.5l6.8,6.2l4.3-6.4L340.7,254.3z"/>
			
				<linearGradient id="SVGID_32_" gradientUnits="userSpaceOnUse" x1="311.335" y1="176.5626" x2="329.8504" y2="176.5626" gradientTransform="matrix(1 0 0 -1 0 500)">
				<stop  offset="0" style="stop-color:#2B3582"/>
				<stop  offset="1" style="stop-color:#150E42"/>
			</linearGradient>
			<path fill="url(#SVGID_32_)" d="M327.2,305.2c0,0-3.9-0.4-8.5,0.6c-1.8,0.4-3.2,1.7-3.6,3.5c-1.5,6.4-4.7,21.9-3.5,31.5
				c0.1,1.1,1.6,1.4,2.2,0.5c4.1-6.7,13.3-22.9,16-27.5L327.2,305.2z"/>
			
				<linearGradient id="SVGID_33_" gradientUnits="userSpaceOnUse" x1="324.1355" y1="191.927" x2="336.7623" y2="191.927" gradientTransform="matrix(1 0 0 -1 0 500)">
				<stop  offset="0" style="stop-color:#F9B776"/>
				<stop  offset="1" style="stop-color:#F47960"/>
			</linearGradient>
			<path fill="url(#SVGID_33_)" d="M333.1,301.9l-8.8,5.4c0,0-1.6,5.1,4.4,6.9l8-4.4L333.1,301.9z"/>
			
				<linearGradient id="SVGID_34_" gradientUnits="userSpaceOnUse" x1="375.015" y1="189.0214" x2="400.9179" y2="248.4456" gradientTransform="matrix(1 0 0 -1 0 500)">
				<stop  offset="0" style="stop-color:#2B3582"/>
				<stop  offset="1" style="stop-color:#150E42"/>
			</linearGradient>
			<path fill="url(#SVGID_34_)" d="M329.9,302c0,0,1.6,6.9,6.5,10.5c0,0,92.9-40.5,111.9-57.2l-18-10.9
				C430.3,244.4,366.5,283.5,329.9,302z"/>
			
				<linearGradient id="SVGID_35_" gradientUnits="userSpaceOnUse" x1="388.2832" y1="218.7778" x2="402.3774" y2="258.7749" gradientTransform="matrix(1 0 0 -1 0 500)">
				<stop  offset="0" style="stop-color:#2B3582"/>
				<stop  offset="1" style="stop-color:#150E42"/>
			</linearGradient>
			<path fill="url(#SVGID_35_)" d="M335.3,261.4c0,0,1-6.4,7.3-9c0,0,19.6,10.7,45.2,1.9c25.6-8.8,39.2-29.5,52.1-28.8l20.9,20.6
				l-12.4,9.1l-12.6-3.2c-3.2-0.8-6.6,0-9.1,2.2C416,263.6,383.5,286.1,335.3,261.4z"/>
			
				<linearGradient id="SVGID_36_" gradientUnits="userSpaceOnUse" x1="488.9112" y1="382.0894" x2="251.6829" y2="122.375" gradientTransform="matrix(1 0 0 -1 0 500)">
				<stop  offset="0" style="stop-color:#FDF53F"/>
				<stop  offset="0.6645" style="stop-color:#E57A58"/>
				<stop  offset="1" style="stop-color:#D93C65"/>
			</linearGradient>
			<path fill="url(#SVGID_36_)" d="M403,98.9c0,0,4.1-7.1,8.8-6.6c0,0,59.4,65.1,69.8,69.5c10.4,4.4,41.4,3.4,46.2,1
				c4.8-2.4,64.2-57.5,64.2-57.5s5.1,2.3,5.2,7.7c0,0-66.8,64.4-73.2,73.8c-8.7,12.8-28.4,44.4-61.8,61.7c-1.4,0.7-3.2,0.6-4.5-0.3
				c-4.8-3.6-16.6-12.7-22.1-20.3c-1-1.3-0.5-3.2,0.9-4c4.9-2.9,15.8-12.7,25.8-44.7c0.8-2.5,0.3-5.2-1.3-7.3L403,98.9z"/>
			
				<linearGradient id="SVGID_37_" gradientUnits="userSpaceOnUse" x1="520.044" y1="351.4704" x2="480.8088" y2="324.6153" gradientTransform="matrix(1 0 0 -1 0 500)">
				<stop  offset="0" style="stop-color:#F9B776"/>
				<stop  offset="1" style="stop-color:#F47960"/>
			</linearGradient>
			<path fill="url(#SVGID_37_)" d="M501.7,146c0,0.3-7.2,14.1-8.5,19.2c-0.4,1.5,0.1,3,1.2,4c2.4,2,7.2,4.7,14.1,2.2
				c1.5-0.5,2.5-2,2.5-3.6l4-19.8L501.7,146z"/>
			<g>
				
					<linearGradient id="SVGID_38_" gradientUnits="userSpaceOnUse" x1="12519.4277" y1="-667.345" x2="12491.3213" y2="-704.528" gradientTransform="matrix(0.6588 -0.7523 -0.7523 -0.6588 -8239.334 9109.3799)">
					<stop  offset="0" style="stop-color:#F9B776"/>
					<stop  offset="1" style="stop-color:#F47960"/>
				</linearGradient>
				<path fill="url(#SVGID_38_)" d="M514,126.4c0.3,0.2,12.2,21.7,12.2,21.7l-12.4,6.5L499.5,136C499.5,136,509.4,122.3,514,126.4z"
					/>
				
					<linearGradient id="SVGID_39_" gradientUnits="userSpaceOnUse" x1="-2639.8872" y1="-647.3377" x2="-2655.4993" y2="-723.9344" gradientTransform="matrix(-0.6588 0.7523 -0.7523 -0.6588 -1736.2856 1684.2645)">
					<stop  offset="0" style="stop-color:#2B3582"/>
					<stop  offset="1" style="stop-color:#150E42"/>
				</linearGradient>
				<path fill="url(#SVGID_39_)" d="M505.3,137.9l6.8,10.4c0.1,0.1,0.2,0.3,0.3,0.4c0.7,0.6,3.4,2.7,5.3-0.2
					c1.7-2.6,3.3-4.9,5.2-5.7c0.8-0.4,1.8,0,2.2,0.7c1.1,1.9,3.4,6.4,4.9,10.5c0.3,0.8-0.1,1.8-0.9,2.1c-2.5,1.1-7.7,3.3-12.3,4.1
					c-0.6,0.1-1.3-0.1-1.7-0.6c-1.9-2.4-7.8-9.8-9.7-11.6c-1.8-1.7-5.1-0.8-6.5-0.4c-0.4,0.1-0.9,0.1-1.3-0.1
					c-1.5-0.8-4.4-2.9-2-6.9c0.5-0.8,0.2-1.9-0.6-2.4c-1.7-1-3.8-2.9-2.1-6.4c1.7-3.5,4.9-3.8,6.9-3.5c0.8,0.1,1.6-0.4,1.8-1.2
					c0.1-0.5,0.5-0.9,1.2-1c1-0.1,1.6-1.2,1.4-2.1c-0.5-1.9-0.4-4.4,2.6-6.2c5.3-3.2,10.3,1.5,11.6,5.6c1.4,4.1-4.6,7.2-8.4,7.8
					c-2.9,0.5-4.3,3.8-4.8,5.4C504.9,137,505,137.5,505.3,137.9z"/>
				
					<linearGradient id="SVGID_40_" gradientUnits="userSpaceOnUse" x1="12479.3965" y1="-696.3776" x2="12501.2617" y2="-673.9451" gradientTransform="matrix(0.6588 -0.7523 -0.7523 -0.6588 -8239.334 9109.3799)">
					<stop  offset="0" style="stop-color:#F9B776"/>
					<stop  offset="1" style="stop-color:#F47960"/>
				</linearGradient>
				<path fill="url(#SVGID_40_)" d="M508.2,151.3c0,0-3.2-6.5-6.3-6.2s-4.7,3.3-0.7,6.6C506.2,155.9,508.2,151.3,508.2,151.3z"/>
			</g>
		</g>
		<g>
			<path fill="#FFFFFF" d="M480.2,432.3l1.7-0.9c0,0,0.1-0.1,0.2-0.1c0.4-0.2,1.2-0.5,2.2-1.1c0.4-0.2,0.8-0.1,1.1,0.3
				c0.2,0.4,0.1,0.8-0.3,1.1c-0.4,0.2-0.7,0.4-1,0.5c0.1,0.2,0.1,0.3,0,0.5c-0.1,0.4-0.5,0.7-0.9,0.5c-0.7-0.2-1.1-0.3-1.1-0.3
				L480.2,432.3z M486.4,433.3c0-0.1,0-0.1,0-0.2c0.1-0.4,0.5-0.7,0.9-0.6c1.2,0.3,2.5,0.5,3.8,0.7c0.4,0.1,0.7,0.5,0.6,0.9
				c-0.1,0.4-0.5,0.7-0.9,0.6c-1.3-0.2-2.6-0.5-3.8-0.8C486.6,434,486.4,433.7,486.4,433.3z M487.3,428.9c0-0.3,0.1-0.5,0.3-0.7
				c1.1-0.7,2.1-1.5,3-2.3c0.3-0.3,0.8-0.2,1.1,0.1s0.2,0.8-0.1,1.1c-1,0.8-2,1.6-3.2,2.4c-0.4,0.2-0.8,0.1-1.1-0.2
				C487.3,429.2,487.3,429,487.3,428.9z M493.2,423.9c0-0.2,0.1-0.4,0.2-0.6c0.9-0.9,1.7-1.9,2.3-2.9c0.2-0.4,0.7-0.4,1.1-0.2
				c0.4,0.2,0.4,0.7,0.2,1.1c-0.7,1.1-1.6,2.1-2.5,3.1c-0.3,0.3-0.8,0.3-1.1,0C493.3,424.3,493.2,424.1,493.2,423.9z M494,434.7
				c0-0.1,0-0.1,0-0.2c0.1-0.4,0.4-0.7,0.9-0.7c1.3,0.2,2.6,0.3,3.8,0.5c0.4,0,0.7,0.4,0.7,0.9c0,0.4-0.4,0.7-0.9,0.7
				c-1.3-0.1-2.6-0.3-3.9-0.5C494.3,435.4,494,435.1,494,434.7z M497.4,417.5c0-0.1,0-0.2,0.1-0.4c0.4-0.8,0.6-1.7,0.8-2.5
				c0.1-0.4,0.2-0.7,0.3-1.1c0.1-0.4,0.6-0.6,1-0.5c0.4,0.1,0.6,0.6,0.5,1c-0.1,0.3-0.2,0.7-0.3,1c-0.2,0.9-0.5,1.8-0.9,2.7
				c-0.2,0.4-0.6,0.6-1,0.4C497.6,418,497.5,417.8,497.4,417.5z M497.6,402.9l-0.1-1.5c0.8-0.1,1.4-0.5,2.2-1.3
				c0.3-0.3,0.8-0.4,1.1-0.1c0.3,0.3,0.4,0.8,0.1,1.1c-0.6,0.7-1.2,1.2-1.8,1.4c-0.1,0.3-0.4,0.4-0.7,0.4L497.6,402.9z M500,410.2
				c0-0.1,0-0.3,0.1-0.4c0.6-1.3,1.4-2.5,2.2-3.4c0.3-0.3,0.8-0.4,1.1-0.1c0.3,0.3,0.4,0.8,0.1,1.1c-0.7,0.8-1.4,1.9-2,3.1
				c-0.2,0.4-0.6,0.5-1,0.4C500.2,410.7,500,410.5,500,410.2z M501.7,435.5c0,0,0-0.1,0-0.1c0-0.4,0.4-0.7,0.8-0.7
				c1.3,0.1,2.6,0.1,3.8,0.2c0.4,0,0.8,0.4,0.8,0.8c0,0.4-0.4,0.8-0.8,0.8c-1.3,0-2.6-0.1-3.9-0.2
				C502,436.2,501.7,435.9,501.7,435.5z M501.5,402.5C501.5,402.4,501.5,402.4,501.5,402.5c0-0.5,0.4-0.8,0.8-0.8
				c1.5,0.1,2.8,0.2,3.9,0.3c0.4,0,0.7,0.4,0.7,0.8c0,0.4-0.4,0.7-0.8,0.7c-1.1-0.1-2.4-0.2-3.8-0.3
				C501.8,403.1,501.5,402.8,501.5,402.5z M501.8,397.5c0-0.2,0-0.3,0.1-0.5c0.6-1,1.4-2,2.3-3.2c0.3-0.3,0.8-0.4,1.1-0.1
				c0.3,0.3,0.4,0.8,0.1,1.1c-0.9,1.1-1.6,2.1-2.2,3.1c-0.2,0.4-0.7,0.4-1.1,0.2C501.9,397.9,501.8,397.7,501.8,397.5z M505.1,404.6
				c0-0.3,0.1-0.6,0.4-0.7c1.3-0.7,2.5-0.9,3.2-1c0.2,0,0.4-0.1,0.5-0.1c0.4-0.2,0.9,0,1,0.4c0.2,0.4,0,0.8-0.4,1
				c-0.1,0-0.1,0.1-0.2,0.1c-0.2,0.1-0.4,0.1-0.7,0.1c-0.7,0.1-1.7,0.3-2.8,0.9c-0.4,0.2-0.8,0-1-0.3
				C505.1,404.8,505.1,404.7,505.1,404.6z M509.4,435.7C509.4,435.7,509.4,435.7,509.4,435.7c0-0.5,0.3-0.8,0.8-0.8
				c1.1,0,2.3-0.1,3.4-0.1l0.4,0c0.4,0,0.8,0.3,0.8,0.7l0,0c0,0.4-0.3,0.8-0.7,0.8l-0.4,0c-1.1,0.1-2.3,0.1-3.5,0.1
				C509.8,436.4,509.5,436.1,509.4,435.7z M506.6,391.5c0-0.2,0.1-0.4,0.2-0.6c0.9-0.9,1.9-1.8,2.9-2.6c0.3-0.3,0.8-0.2,1.1,0.1
				c0.3,0.3,0.2,0.8-0.1,1.1c-1,0.8-1.9,1.7-2.8,2.5c-0.3,0.3-0.8,0.3-1.1,0C506.7,391.8,506.6,391.7,506.6,391.5z M512.6,386.6
				c0-0.3,0.1-0.5,0.3-0.7c0.2-0.2,0.5-0.3,0.7-0.5c0.9-0.6,1.8-1.1,2.7-1.6c0.4-0.2,0.9,0,1,0.4c0.2,0.4,0,0.8-0.4,1
				c-0.9,0.4-1.7,0.9-2.6,1.5c-0.2,0.1-0.5,0.3-0.7,0.5c-0.4,0.2-0.8,0.1-1.1-0.2C512.7,386.9,512.6,386.7,512.6,386.6z
				 M517.1,435.1c0-0.4,0.3-0.8,0.7-0.8c1.3-0.2,2.6-0.4,3.8-0.6c0.4-0.1,0.8,0.2,0.9,0.6c0.1,0.4-0.2,0.8-0.6,0.9
				c-1.3,0.2-2.6,0.4-3.9,0.6C517.6,435.9,517.2,435.6,517.1,435.1C517.1,435.2,517.1,435.2,517.1,435.1z M519.5,383.2
				c0-0.3,0.2-0.7,0.5-0.8c1.3-0.4,2.6-0.7,3.9-0.9c0.4-0.1,0.8,0.2,0.9,0.6c0.1,0.4-0.2,0.8-0.6,0.9c-1.2,0.2-2.5,0.5-3.6,0.9
				c-0.4,0.1-0.8-0.1-1-0.5C519.5,383.3,519.5,383.2,519.5,383.2z M524.7,433.7c0-0.4,0.2-0.7,0.6-0.8c1.2-0.3,2.5-0.7,3.6-1.1
				c0.4-0.1,0.8,0.1,1,0.5c0.1,0.4-0.1,0.8-0.5,1c-1.2,0.4-2.5,0.8-3.8,1.2c-0.4,0.1-0.8-0.1-0.9-0.6
				C524.8,433.8,524.7,433.7,524.7,433.7z M527.1,381.9C527.1,381.9,527.1,381.9,527.1,381.9c0-0.5,0.3-0.8,0.8-0.8
				c1.3,0,2.6,0.1,4,0.2c0.4,0.1,0.7,0.4,0.7,0.9c-0.1,0.4-0.4,0.7-0.9,0.7c-1.2-0.2-2.5-0.2-3.8-0.2
				C527.5,382.7,527.2,382.3,527.1,381.9z M532,431.1c0-0.3,0.1-0.6,0.5-0.8c1.2-0.5,2.3-1.1,3.4-1.7c0.4-0.2,0.8-0.1,1.1,0.3
				c0.2,0.4,0.1,0.8-0.3,1.1c-1.1,0.6-2.3,1.2-3.5,1.8c-0.4,0.2-0.9,0-1-0.4C532.1,431.3,532,431.2,532,431.1z M534.8,382.9
				c0-0.1,0-0.2,0-0.3c0.1-0.4,0.5-0.7,0.9-0.5c0,0,3,0.8,3.9,1.5l0,0l1.3,1.1c0.3,0.3,0.4,0.8,0.1,1.1c-0.3,0.3-0.8,0.4-1.1,0.1
				l-1.3-1.1c-0.3-0.2-1.5-0.7-3.3-1.2C535,383.5,534.8,383.2,534.8,382.9z M538.7,427.3c0-0.3,0.1-0.5,0.3-0.7c1-0.7,2-1.5,3-2.4
				c0.3-0.3,0.8-0.3,1.1,0.1c0.3,0.3,0.3,0.8-0.1,1.1c-1,0.9-2,1.7-3.1,2.5c-0.4,0.2-0.8,0.2-1.1-0.2
				C538.8,427.6,538.8,427.4,538.7,427.3z M544.5,422.2c0-0.2,0.1-0.4,0.2-0.6c0.8-0.9,1.6-1.9,2.4-2.9c0.2-0.4,0.7-0.4,1.1-0.2
				c0.3,0.2,0.4,0.7,0.2,1.1c-0.8,1.1-1.6,2.1-2.5,3.1c-0.3,0.3-0.8,0.3-1.1,0.1C544.6,422.5,544.5,422.4,544.5,422.2z M542.7,387.8
				c0-0.2,0-0.4,0.2-0.5c0.3-0.3,0.8-0.4,1.1-0.1l3,2.5c0.3,0.3,0.4,0.8,0.1,1.1c-0.3,0.3-0.8,0.4-1.1,0.1l-3-2.5
				C542.8,388.2,542.7,388,542.7,387.8z M549,415.9c0-0.1,0-0.3,0.1-0.4c0.6-1.1,1.2-2.2,1.7-3.4c0.2-0.4,0.6-0.6,1-0.4
				c0.4,0.2,0.6,0.6,0.4,1c-0.5,1.2-1.2,2.4-1.8,3.5c-0.2,0.4-0.7,0.5-1.1,0.3C549.2,416.4,549,416.1,549,415.9z M548.7,392.7
				c0-0.2,0-0.4,0.2-0.5c0.3-0.3,0.8-0.4,1.1-0.1l3,2.5c0.3,0.3,0.4,0.8,0.1,1.1c-0.3,0.3-0.8,0.4-1.1,0.1l-3-2.5
				C548.8,393.1,548.7,392.9,548.7,392.7z M552.2,408.9c0-0.1,0-0.2,0-0.3c0.4-1.2,0.8-2.4,1.1-3.6c0.1-0.4,0.5-0.7,0.9-0.6
				c0.4,0.1,0.7,0.5,0.6,0.9c-0.3,1.3-0.7,2.6-1.1,3.8c-0.1,0.4-0.6,0.6-1,0.5C552.4,409.4,552.2,409.2,552.2,408.9z M554.1,401.4
				c0-0.1,0-0.1,0-0.2c0.2-1.1,0.4-2.2,0.5-3.4c-0.1-0.2,0-0.5,0.1-0.7c0.3-0.3,0.8-0.4,1.1-0.1l0.4,0.3l-0.1,0.4
				c-0.2,1.3-0.4,2.6-0.6,3.8c-0.1,0.4-0.5,0.7-0.9,0.6C554.4,402,554.2,401.7,554.1,401.4z"/>
			
				<linearGradient id="SVGID_41_" gradientUnits="userSpaceOnUse" x1="551.0829" y1="121.4986" x2="520.1692" y2="79.9728" gradientTransform="matrix(1 0 0 -1 0 500)">
				<stop  offset="0" style="stop-color:#FDF53F"/>
				<stop  offset="1" style="stop-color:#D93C65"/>
			</linearGradient>
			<path fill="url(#SVGID_41_)" d="M545.2,390.4c0,0-16.1-5.9-21.7,5.5c-5.6,11.4-8.4,24.2-14.1,26.1c0,0,33.1,5.3,40-27.3
				L545.2,390.4z"/>
			
				<linearGradient id="SVGID_42_" gradientUnits="userSpaceOnUse" x1="-1076.3429" y1="2920.8689" x2="-1057.7268" y2="2958.803" gradientTransform="matrix(0.6839 0.7296 0.7296 -0.6839 -897.5501 3156.8013)">
				<stop  offset="0" style="stop-color:#53D8FF"/>
				<stop  offset="1" style="stop-color:#3840F7"/>
			</linearGradient>
			<path fill="url(#SVGID_42_)" d="M555.7,355.8c0,0-12.8-11-18.1-8.9c-5.1,1.9-30.8,30.1-33.3,32.8c-0.1,0.1-0.1,0.3,0,0.4l0,0
				c0.9,1,2.3,1.5,3.7,1.3c6.6-0.8,26.3-3.4,32-6.1C546.9,372.2,555.7,355.8,555.7,355.8z"/>
			<path fill="#FFFFFF" d="M515.1,371.3c0-0.1,0-0.2,0.1-0.3c0.1-0.1,14.5-15.3,20.9-21.6c1.1-1.1,2.8-1.5,4.3-0.9
				c2.3,0.9,6.9,2.9,10.9,5.6c0.2,0.1,0.2,0.4,0.1,0.5c-0.1,0.2-0.4,0.2-0.5,0.1c-3.9-2.7-8.4-4.6-10.7-5.6
				c-1.2-0.5-2.6-0.2-3.5,0.7c-6.4,6.3-20.8,21.4-20.9,21.6c-0.1,0.2-0.4,0.2-0.5,0C515.2,371.5,515.1,371.4,515.1,371.3z"/>
			
				<linearGradient id="SVGID_43_" gradientUnits="userSpaceOnUse" x1="-979.0897" y1="2919.1006" x2="-1008.067" y2="2968.0984" gradientTransform="matrix(0.6839 0.7296 0.7296 -0.6839 -897.5501 3156.8013)">
				<stop  offset="0" style="stop-color:#53D8FF"/>
				<stop  offset="1" style="stop-color:#3840F7"/>
			</linearGradient>
			<path fill="url(#SVGID_43_)" d="M582.5,384.4c0,0,10.1,13.5,7.7,18.6c-2.3,4.9-32,28.8-34.9,31.1c-0.1,0.1-0.3,0.1-0.4,0l0,0
				c-0.9-1-1.4-2.4-1.1-3.8c1.2-6.5,5.1-26.1,8.2-31.6C565.6,392.1,582.5,384.4,582.5,384.4z"/>
			<path fill="#FFFFFF" d="M564,423.5c0-0.1,0-0.2,0.1-0.3c0.2-0.1,16.2-13.5,22.9-19.5c1-0.9,1.3-2.2,0.9-3.4
				c-0.8-2.4-2.4-6.9-4.8-11c-0.1-0.2,0-0.4,0.1-0.5c0.2-0.1,0.4,0,0.5,0.1c2.3,4,4,8.3,4.9,11.2c0.5,1.5,0.1,3.2-1.1,4.3
				c-6.7,6-22.7,19.4-22.9,19.5c-0.2,0.1-0.4,0.1-0.5-0.1C564.1,423.7,564.1,423.6,564,423.5z"/>
			
				<linearGradient id="SVGID_44_" gradientUnits="userSpaceOnUse" x1="-1758.6166" y1="714.2125" x2="-1736.9469" y2="495.9706" gradientTransform="matrix(4.100000e-03 1 1 -4.100000e-03 -103.432 2119.2073)">
				<stop  offset="0" style="stop-color:#53D8FF"/>
				<stop  offset="1" style="stop-color:#3840F7"/>
			</linearGradient>
			<path fill="url(#SVGID_44_)" d="M597.1,317.3c-7.4,3.5-15.2,8.3-22.5,15.2c-22.8,21.2-35.9,40.8-39.4,46.4
				c-0.6,1-0.7,2.3-0.1,3.4c4.6,8.3,10.9,15.1,18.8,20.4c1.5,1,3.4,1.1,5,0.2c6.8-3.8,26.4-15.4,48-35.9
				c7.2-6.8,12.6-14.2,16.5-21.3C616.1,331.5,604.2,322.2,597.1,317.3z"/>
			
				<linearGradient id="SVGID_45_" gradientUnits="userSpaceOnUse" x1="-1015.5707" y1="3056.563" x2="-1054.91" y2="2999.6616" gradientTransform="matrix(0.6839 0.7296 0.7296 -0.6839 -897.5501 3156.8013)">
				<stop  offset="0" style="stop-color:#FDF53F"/>
				<stop  offset="1" style="stop-color:#D93C65"/>
			</linearGradient>
			<path fill="url(#SVGID_45_)" d="M623.5,345.7c8.7-15.7,10.5-30.3,10.9-35.2c0.1-1-0.7-1.8-1.6-1.7c-4.9,0.1-19.4,1-35.6,8.5
				C604.2,322.2,616.1,331.5,623.5,345.7z"/>
			<g>
				
					<linearGradient id="SVGID_46_" gradientUnits="userSpaceOnUse" x1="-1804.0059" y1="872.0763" x2="-1773.5046" y2="872.0763" gradientTransform="matrix(6.540000e-02 0.9979 0.9979 -6.540000e-02 -160.9987 2190.3738)">
					<stop  offset="0" style="stop-color:#53D8FF"/>
					<stop  offset="1" style="stop-color:#3840F7"/>
				</linearGradient>
				<path fill="url(#SVGID_46_)" d="M603,359.8c-5.9,5.5-15.5,4.9-21.4-1.4c-5.9-6.3-5.9-15.9-0.1-21.4c5.9-5.5,15.5-4.9,21.4,1.4
					C608.8,344.7,608.9,354.3,603,359.8z"/>
				
					<linearGradient id="SVGID_47_" gradientUnits="userSpaceOnUse" x1="-1042.1794" y1="3007.9812" x2="-1017.2016" y2="3007.9812" gradientTransform="matrix(0.6839 0.7296 0.7296 -0.6839 -897.5501 3156.8013)">
					<stop  offset="0" style="stop-color:#2B3582"/>
					<stop  offset="1" style="stop-color:#150E42"/>
				</linearGradient>
				<path fill="url(#SVGID_47_)" d="M601.4,357.5c-4.7,4.4-12.3,3.9-17-1.2c-4.7-5-4.7-12.7-0.1-17.1c4.7-4.4,12.3-3.9,17,1.2
					C606.1,345.5,606.1,353.1,601.4,357.5z"/>
				<path fill="#FFFFFF" d="M588.5,340.5c0-0.1,0.1-0.3,0.2-0.4c3.7-1.8,8.4-0.9,11.3,2.2c0.7,0.8,1.3,1.7,1.8,2.7
					c0.1,0.2,0,0.4-0.2,0.5c-0.2,0.1-0.4,0-0.5-0.2c-0.4-0.9-1-1.7-1.7-2.5c-2.7-2.9-7-3.8-10.4-2.1c-0.2,0.1-0.4,0-0.5-0.2
					C588.5,340.6,588.5,340.6,588.5,340.5z"/>
			</g>
			<g>
				
					<linearGradient id="SVGID_48_" gradientUnits="userSpaceOnUse" x1="-1780.2054" y1="849.402" x2="-1760.0566" y2="849.402" gradientTransform="matrix(6.540000e-02 0.9979 0.9979 -6.540000e-02 -160.9987 2190.3738)">
					<stop  offset="0" style="stop-color:#53D8FF"/>
					<stop  offset="1" style="stop-color:#3840F7"/>
				</linearGradient>
				<path fill="url(#SVGID_48_)" d="M577.9,376c-3.9,3.6-10.2,3.2-14.1-1c-3.9-4.2-3.9-10.5,0-14.1c3.9-3.6,10.2-3.2,14.1,1
					C581.8,366,581.8,372.3,577.9,376z"/>
				
					<linearGradient id="SVGID_49_" gradientUnits="userSpaceOnUse" x1="-1038.0942" y1="2978.4875" x2="-1021.5916" y2="2978.4875" gradientTransform="matrix(0.6839 0.7296 0.7296 -0.6839 -897.5501 3156.8013)">
					<stop  offset="0" style="stop-color:#2B3582"/>
					<stop  offset="1" style="stop-color:#150E42"/>
				</linearGradient>
				<path fill="url(#SVGID_49_)" d="M576.9,374.5c-3.1,2.9-8.1,2.6-11.3-0.8c-3.1-3.3-3.1-8.4,0-11.3s8.1-2.6,11.3,0.8
					C580,366.5,580,371.6,576.9,374.5z"/>
				<path fill="#FFFFFF" d="M568.2,363.3c0-0.1,0.1-0.3,0.2-0.4c2.5-1.2,5.6-0.6,7.6,1.5c0.5,0.5,0.9,1.1,1.2,1.8
					c0.1,0.2,0,0.4-0.2,0.5c-0.2,0.1-0.4,0-0.5-0.2c-0.3-0.6-0.6-1.1-1.1-1.6c-1.8-1.9-4.5-2.4-6.7-1.3c-0.2,0.1-0.4,0-0.5-0.2
					C568.2,363.4,568.2,363.3,568.2,363.3z"/>
			</g>
		</g>
		<g>
			<path fill="#FFFFFF" d="M248.9,395.3l1.4-1.7c0.2-0.2,0.5-0.2,0.7-0.1c0.2,0.2,0.2,0.5,0.1,0.7l0,0l-1.4,1.7
				c-0.2,0.2-0.5,0.2-0.7,0.1C248.8,395.8,248.8,395.5,248.9,395.3z"/>
			<path fill="#FFFFFF" d="M254,389.8l1.6-1.5c0.2-0.2,0.5-0.2,0.7,0c0.2,0.2,0.2,0.5,0,0.7l0,0l-1.6,1.5c-0.2,0.2-0.5,0.2-0.7,0
				C253.8,390.3,253.8,390,254,389.8z"/>
			<path fill="#FFFFFF" d="M259.6,384.9l1.7-1.4c0.2-0.2,0.6-0.1,0.7,0.1c0.2,0.2,0.1,0.6-0.1,0.7l0,0l-1.8,1.4
				c-0.2,0.2-0.6,0.1-0.7-0.1C259.3,385.4,259.3,385.1,259.6,384.9z"/>
			<path fill="#FFFFFF" d="M265.6,380.5l1.9-1.2c0.3-0.2,0.6-0.1,0.7,0.2c0.2,0.3,0.1,0.6-0.2,0.7l0,0l-1.9,1.2
				c-0.2,0.2-0.6,0.1-0.7-0.2C265.3,381,265.3,380.7,265.6,380.5z"/>
			<path fill="#FFFFFF" d="M272,376.7l2-1c0.3-0.1,0.6,0,0.7,0.2c0.1,0.3,0,0.6-0.2,0.7l0,0l-2,1c-0.3,0.1-0.6,0-0.7-0.2
				C271.6,377.2,271.7,376.8,272,376.7z"/>
			<path fill="#FFFFFF" d="M278.6,373.4l2-0.9c0.3-0.1,0.6,0,0.7,0.3c0.1,0.3,0,0.6-0.3,0.7l0,0l-2,0.9c-0.3,0.1-0.6,0-0.7-0.3
				C278.2,373.9,278.4,373.5,278.6,373.4z"/>
			<path fill="#FFFFFF" d="M285.6,370.6l2.1-0.7c0.3-0.1,0.6,0.1,0.7,0.4c0.1,0.3-0.1,0.6-0.4,0.7l0,0l-2.1,0.7
				c-0.3,0.1-0.6-0.1-0.7-0.4C285.1,371.1,285.3,370.7,285.6,370.6z"/>
			<path fill="#FFFFFF" d="M292.6,368.4l2.1-0.6c0.3-0.1,0.6,0.1,0.7,0.4c0.1,0.3-0.1,0.6-0.4,0.7l0,0l-2.1,0.6
				c-0.3,0.1-0.6-0.1-0.7-0.4C292.1,368.8,292.3,368.4,292.6,368.4z"/>
			<path fill="#FFFFFF" d="M299.8,366.5l2.2-0.5c0.3-0.1,0.6,0.1,0.7,0.5c0.1,0.3-0.1,0.6-0.5,0.7l0,0l-2.2,0.4
				c-0.3,0.1-0.6-0.1-0.7-0.5C299.3,366.9,299.5,366.6,299.8,366.5z"/>
			<path fill="#FFFFFF" d="M307.1,365.2l2.2-0.3c0.3-0.1,0.6,0.2,0.7,0.5c0.1,0.3-0.2,0.6-0.5,0.7l0,0l-2.2,0.3
				c-0.3,0.1-0.6-0.2-0.7-0.5C306.6,365.5,306.8,365.2,307.1,365.2z"/>
			<path fill="#FFFFFF" d="M314.5,364.2l2.2-0.2c0.3,0,0.6,0.2,0.7,0.6c0,0.3-0.2,0.6-0.6,0.7l0,0l-2.2,0.2c-0.3,0-0.6-0.2-0.7-0.6
				C313.9,364.5,314.2,364.2,314.5,364.2z"/>
			<path fill="#FFFFFF" d="M321.9,363.6l2.2-0.1c0.4,0,0.6,0.3,0.7,0.6c0,0.4-0.3,0.6-0.6,0.7l0,0l-2.2,0.1c-0.4,0-0.6-0.3-0.7-0.6
				C321.3,363.9,321.6,363.6,321.9,363.6z"/>
			<path fill="#FFFFFF" d="M329.3,363.5l2.2,0c0.4,0,0.6,0.3,0.6,0.6c0,0.4-0.3,0.6-0.6,0.6l0,0l-2.2,0c-0.4,0-0.6-0.3-0.6-0.6
				C328.7,363.7,329,363.4,329.3,363.5z"/>
			<path fill="#FFFFFF" d="M336.8,363.6l2.2,0.1c0.4,0,0.6,0.3,0.6,0.7c0,0.4-0.3,0.6-0.7,0.6l0,0l-2.2-0.1c-0.4,0-0.6-0.3-0.6-0.7
				C336.1,363.9,336.4,363.6,336.8,363.6z"/>
			<path fill="#FFFFFF" d="M344.2,364l2.2,0.2c0.4,0,0.6,0.4,0.6,0.7c0,0.4-0.4,0.6-0.7,0.6l0,0l-2.2-0.2c-0.4,0-0.6-0.4-0.6-0.7
				C343.5,364.3,343.8,364,344.2,364z"/>
			<path fill="#FFFFFF" d="M351.6,364.7l2.2,0.2c0.4,0,0.6,0.4,0.6,0.8c0,0.4-0.4,0.6-0.8,0.6l0,0l-2.2-0.3c-0.4,0-0.6-0.4-0.6-0.8
				C350.9,364.9,351.2,364.7,351.6,364.7z"/>
			<path fill="#FFFFFF" d="M358.9,365.6l2.2,0.3c0.4,0.1,0.6,0.4,0.6,0.8c-0.1,0.4-0.4,0.6-0.8,0.6l0,0l-2.2-0.3
				c-0.4-0.1-0.6-0.4-0.6-0.8C358.2,365.8,358.6,365.5,358.9,365.6z"/>
			<path fill="#FFFFFF" d="M366.3,366.6l2.2,0.3c0.4,0.1,0.6,0.4,0.6,0.8c-0.1,0.4-0.4,0.6-0.8,0.6l0,0l-2.2-0.4
				c-0.4-0.1-0.6-0.4-0.6-0.8C365.5,366.8,365.9,366.6,366.3,366.6z"/>
			<path fill="#FFFFFF" d="M373.6,367.8l2.2,0.4c0.4,0.1,0.7,0.4,0.6,0.8s-0.4,0.7-0.8,0.6l0,0l-2.2-0.4c-0.4-0.1-0.6-0.4-0.6-0.8
				C372.8,368,373.2,367.7,373.6,367.8z"/>
			<path fill="#FFFFFF" d="M380.9,369.1l2.2,0.4c0.4,0.1,0.7,0.5,0.6,0.9c-0.1,0.4-0.5,0.7-0.9,0.6l0,0l-2.2-0.4
				c-0.4-0.1-0.7-0.5-0.6-0.9C380.1,369.3,380.5,369,380.9,369.1z"/>
			<path fill="#FFFFFF" d="M388.2,370.4l2.2,0.4c0.4,0.1,0.7,0.5,0.6,0.9s-0.5,0.7-0.9,0.6l0,0l-2.2-0.4c-0.4-0.1-0.7-0.5-0.6-0.9
				C387.4,370.6,387.8,370.3,388.2,370.4z"/>
			<path fill="#FFFFFF" d="M395.4,371.7l2.2,0.4c0.4,0.1,0.7,0.5,0.6,0.9s-0.5,0.7-0.9,0.6l0,0l-2.2-0.4c-0.4-0.1-0.7-0.5-0.6-0.9
				C394.6,371.9,395,371.7,395.4,371.7z"/>
			<path fill="#FFFFFF" d="M402.7,373.1l2.2,0.4c0.4,0.1,0.7,0.5,0.6,0.9c-0.1,0.4-0.5,0.7-0.9,0.6l0,0l-2.2-0.4
				c-0.4-0.1-0.7-0.5-0.6-0.9C401.9,373.3,402.3,373,402.7,373.1z"/>
			<path fill="#FFFFFF" d="M410,374.3l2.2,0.4c0.4,0.1,0.7,0.5,0.6,0.9c-0.1,0.4-0.5,0.7-0.9,0.6l0,0l-2.2-0.4
				c-0.4-0.1-0.7-0.5-0.6-0.9C409.2,374.5,409.6,374.3,410,374.3z"/>
			<path fill="#FFFFFF" d="M417.3,375.5l2.2,0.3c0.4,0.1,0.7,0.5,0.7,0.9c-0.1,0.4-0.5,0.7-0.9,0.7l0,0l-2.2-0.3
				c-0.4-0.1-0.7-0.5-0.7-0.9C416.5,375.8,416.9,375.5,417.3,375.5z"/>
			<path fill="#FFFFFF" d="M424.6,376.6l2.2,0.3c0.4,0.1,0.8,0.5,0.7,0.9c-0.1,0.4-0.5,0.8-0.9,0.7l0,0l-2.2-0.3
				c-0.4-0.1-0.7-0.5-0.7-0.9C423.8,376.8,424.2,376.5,424.6,376.6z"/>
			<path fill="#FFFFFF" d="M431.9,377.4l2.2,0.2c0.4,0,0.8,0.4,0.7,0.9c0,0.4-0.4,0.8-0.9,0.7l0,0l-2.2-0.2c-0.4,0-0.8-0.4-0.7-0.9
				C431.1,377.7,431.5,377.4,431.9,377.4z"/>
			<path fill="#FFFFFF" d="M439.3,378.1l2.2,0.2c0.5,0,0.8,0.4,0.8,0.9c0,0.5-0.4,0.8-0.9,0.8l0,0l-2.2-0.2c-0.5,0-0.8-0.4-0.8-0.9
				C438.4,378.4,438.8,378.1,439.3,378.1z"/>
			<path fill="#FFFFFF" d="M446.6,378.6l2.2,0.1c0.5,0,0.8,0.4,0.8,0.9c0,0.5-0.4,0.8-0.9,0.8l0,0l-2.2-0.1c-0.5,0-0.8-0.4-0.8-0.9
				C445.8,378.9,446.2,378.6,446.6,378.6z"/>
			<path fill="#FFFFFF" d="M454,378.8h2.2c0.5,0,0.9,0.4,0.9,0.9c0,0.5-0.4,0.9-0.9,0.9l0,0H454c-0.5,0-0.9-0.4-0.9-0.9
				C453.1,379.1,453.5,378.8,454,378.8z"/>
			<path fill="#FFFFFF" d="M461.4,378.6l2.2-0.1c0.5,0,0.9,0.4,0.9,0.8c0,0.5-0.4,0.9-0.8,0.9l0,0l-2.2,0.1c-0.5,0-0.9-0.4-0.9-0.8
				C460.5,379.1,460.9,378.7,461.4,378.6z"/>
			<path fill="#FFFFFF" d="M468.7,378.2l2.2-0.2c0.5,0,0.9,0.3,1,0.8c0,0.5-0.3,0.9-0.8,1l0,0l-2.2,0.2c-0.5,0-0.9-0.3-1-0.8
				S468.2,378.2,468.7,378.2z"/>
			<path fill="#FFFFFF" d="M476,377.3l2.2-0.3c0.5-0.1,0.9,0.3,1,0.7s-0.3,0.9-0.7,1l0,0l-2.2,0.3c-0.5,0.1-0.9-0.3-1-0.7
				C475.2,377.9,475.5,377.4,476,377.3z"/>
			<path fill="#FFFFFF" d="M483.2,376.1l2.2-0.5c0.5-0.1,1,0.2,1.1,0.7c0.1,0.5-0.2,1-0.7,1.1l0,0l-2.2,0.5c-0.5,0.1-1-0.2-1.1-0.7
				C482.4,376.6,482.7,376.2,483.2,376.1z"/>
			<path fill="#FFFFFF" d="M490.4,374.3l2.1-0.6c0.5-0.1,1,0.1,1.1,0.6c0.1,0.5-0.1,1-0.6,1.1l0,0l-2.1,0.6c-0.5,0.1-1-0.1-1.1-0.6
				C489.6,375,489.9,374.5,490.4,374.3z"/>
			<path fill="#FFFFFF" d="M497.3,372.2l2.1-0.8c0.5-0.2,1,0.1,1.2,0.6c0.2,0.5-0.1,1-0.6,1.2l0,0l-2.1,0.8c-0.5,0.2-1-0.1-1.2-0.6
				C496.6,372.9,496.9,372.3,497.3,372.2z"/>
			<path fill="#FFFFFF" d="M504.2,369.4l2-0.9c0.5-0.2,1,0,1.2,0.5c0.2,0.5,0,1-0.5,1.2l0,0l-2,0.9c-0.5,0.2-1,0-1.2-0.5
				C503.5,370.2,503.7,369.7,504.2,369.4z"/>
			<path fill="#FFFFFF" d="M510.7,366.2l1.9-1.1c0.5-0.3,1-0.1,1.3,0.4c0.3,0.5,0.1,1-0.4,1.3l0,0l-1.9,1.1c-0.5,0.3-1,0.1-1.3-0.4
				C510.1,367.1,510.3,366.5,510.7,366.2z"/>
			<path fill="#FFFFFF" d="M517.1,362.5l1.9-1.2c0.4-0.3,1-0.2,1.3,0.3c0.3,0.4,0.2,1-0.3,1.3l0,0l-1.9,1.2c-0.4,0.3-1,0.2-1.3-0.3
				C516.5,363.4,516.6,362.8,517.1,362.5z"/>
			<path fill="#FFFFFF" d="M523.1,358.4l1.8-1.3c0.4-0.3,1-0.2,1.4,0.2c0.3,0.4,0.2,1-0.2,1.4l0,0l-1.8,1.3c-0.4,0.3-1,0.2-1.4-0.2
				C522.6,359.3,522.7,358.7,523.1,358.4z"/>
			<path fill="#FFFFFF" d="M528.8,353.8l1.7-1.5c0.4-0.4,1-0.3,1.4,0.1c0.4,0.4,0.3,1-0.1,1.4l0,0l-1.7,1.5c-0.4,0.4-1,0.3-1.4-0.1
				C528.4,354.8,528.4,354.2,528.8,353.8z"/>
			<path fill="#FFFFFF" d="M534.2,348.9l1.6-1.6c0.4-0.4,1-0.4,1.4,0c0.4,0.4,0.4,1,0,1.4l0,0l-1.6,1.6c-0.4,0.4-1,0.4-1.4,0
				C533.8,349.9,533.8,349.2,534.2,348.9z"/>
			<path fill="#FFFFFF" d="M539.3,343.5l1.5-1.7c0.4-0.4,1-0.5,1.4-0.1c0.4,0.4,0.5,1,0.1,1.4l0,0l-1.5,1.7c-0.4,0.4-1,0.5-1.4,0.1
				C538.9,344.6,538.9,343.9,539.3,343.5z"/>
			<path fill="#FFFFFF" d="M543.9,337.9l1.3-1.8c0.3-0.5,1-0.5,1.4-0.2c0.5,0.3,0.5,1,0.2,1.4l0,0l-1.3,1.8c-0.3,0.4-1,0.5-1.4,0.2
				C543.7,339,543.6,338.3,543.9,337.9z"/>
			<path fill="#FFFFFF" d="M548.2,331.9l1.2-1.9c0.3-0.5,1-0.6,1.4-0.3c0.5,0.3,0.6,1,0.3,1.4l0,0l-1.2,1.9c-0.3,0.5-1,0.6-1.4,0.3
				C548,333,547.9,332.4,548.2,331.9z"/>
			<path fill="#FFFFFF" d="M552,325.7l1.1-1.9c0.3-0.5,0.9-0.7,1.4-0.4s0.7,0.9,0.4,1.4l0,0l-1.1,1.9c-0.3,0.5-0.9,0.7-1.4,0.4
				C551.9,326.8,551.7,326.2,552,325.7z"/>
			<path fill="#FFFFFF" d="M555.4,319.2l0.9-2c0.2-0.5,0.9-0.8,1.4-0.5s0.8,0.9,0.5,1.4l0,0l-0.9,2c-0.2,0.5-0.9,0.8-1.4,0.5
				C555.4,320.3,555.2,319.7,555.4,319.2z"/>
			<path fill="#FFFFFF" d="M558.3,312.5l0.8-2.1c0.2-0.6,0.8-0.8,1.4-0.6c0.6,0.2,0.8,0.8,0.6,1.4l0,0l-0.8,2.1
				c-0.2,0.6-0.8,0.8-1.4,0.6C558.4,313.6,558.1,313,558.3,312.5z"/>
			<path fill="#FFFFFF" d="M560.7,305.6l0.6-2.1c0.2-0.6,0.8-0.9,1.4-0.7c0.6,0.2,0.9,0.8,0.7,1.4l0,0l-0.6,2.1
				c-0.2,0.6-0.8,0.9-1.4,0.7C560.9,306.7,560.6,306.1,560.7,305.6z"/>
			<path fill="#FFFFFF" d="M562.6,298.5l0.5-2.2c0.1-0.6,0.7-1,1.3-0.8s1,0.7,0.8,1.3l0,0l-0.5,2.2c-0.1,0.6-0.7,1-1.3,0.8
				C562.9,299.7,562.5,299.1,562.6,298.5z"/>
			<path fill="#FFFFFF" d="M564,291.3l0.1-0.3c0.1-0.6,0.6-1,1.3-0.9c0.6,0.1,1,0.6,0.9,1.3l0,0l-0.1,0.3c-0.1,0.6-0.7,1-1.3,0.9
				C564.3,292.5,563.9,291.9,564,291.3z"/>
		</g>
		<g>
			<path fill="#FFFFFF" d="M269.8,384.4l1.9-1.1c0.3-0.1,0.6,0,0.7,0.2c0.1,0.3,0,0.6-0.2,0.7l0,0l-2,1c-0.3,0.1-0.6,0-0.7-0.2
				C269.4,384.9,269.5,384.5,269.8,384.4z"/>
			<path fill="#FFFFFF" d="M276.5,381.2l2.1-0.8c0.3-0.1,0.6,0,0.7,0.3c0.1,0.3,0,0.6-0.3,0.7l0,0l-2.1,0.8c-0.3,0.1-0.6,0-0.7-0.3
				C276.1,381.6,276.2,381.3,276.5,381.2z"/>
			<path fill="#FFFFFF" d="M283.6,378.9l2.2-0.5c0.3-0.1,0.6,0.1,0.7,0.4c0.1,0.3-0.1,0.6-0.4,0.7l0,0l-2.2,0.5
				c-0.3,0.1-0.6-0.1-0.7-0.4C283.1,379.3,283.3,379,283.6,378.9z"/>
			<path fill="#FFFFFF" d="M291,377.5l2.2-0.2c0.3,0,0.6,0.2,0.6,0.5c0,0.3-0.2,0.6-0.5,0.6l0,0l-2.2,0.2c-0.3,0-0.6-0.2-0.6-0.5
				C290.4,377.9,290.6,377.6,291,377.5z"/>
			<path fill="#FFFFFF" d="M298.4,377l2.2,0c0.3,0,0.6,0.3,0.6,0.6s-0.3,0.6-0.6,0.6l0,0l-2.2,0c-0.3,0-0.6-0.3-0.6-0.6
				C297.8,377.2,298.1,377,298.4,377z"/>
			<path fill="#FFFFFF" d="M305.8,377.1l2.2,0.2c0.3,0,0.6,0.3,0.6,0.7c0,0.3-0.3,0.6-0.7,0.6l0,0l-2.2-0.2c-0.3,0-0.6-0.3-0.6-0.7
				C305.2,377.4,305.5,377.1,305.8,377.1z"/>
			<path fill="#FFFFFF" d="M313.3,378l2.2,0.4c0.4,0.1,0.6,0.4,0.5,0.7c-0.1,0.4-0.4,0.6-0.7,0.5l0,0l-2.2-0.4
				c-0.3-0.1-0.6-0.4-0.5-0.7C312.6,378.1,312.9,377.9,313.3,378z"/>
			<path fill="#FFFFFF" d="M320.6,379.4l2.2,0.5c0.4,0.1,0.6,0.4,0.5,0.8c-0.1,0.4-0.4,0.6-0.8,0.5l0,0h0l-2.1-0.5
				c-0.4-0.1-0.6-0.4-0.5-0.8C319.9,379.5,320.2,379.3,320.6,379.4z"/>
			<path fill="#FFFFFF" d="M327.7,381.4l2.1,0.7c0.4,0.1,0.6,0.5,0.4,0.9c-0.1,0.4-0.5,0.6-0.9,0.4l0,0l-2.1-0.7
				c-0.4-0.1-0.5-0.5-0.4-0.8C327,381.5,327.4,381.3,327.7,381.4z"/>
			<path fill="#FFFFFF" d="M334.8,383.8l2.1,0.8c0.4,0.1,0.5,0.5,0.4,0.9c-0.1,0.4-0.5,0.5-0.9,0.4l0,0l-2.1-0.8
				c-0.4-0.1-0.5-0.5-0.4-0.9C334,383.8,334.4,383.6,334.8,383.8z"/>
			<path fill="#FFFFFF" d="M341.7,386.5l2,0.9c0.4,0.2,0.5,0.6,0.4,0.9c-0.2,0.4-0.6,0.5-0.9,0.4l0,0l-2-0.9
				c-0.4-0.2-0.5-0.6-0.4-0.9C340.9,386.5,341.3,386.4,341.7,386.5z"/>
			<path fill="#FFFFFF" d="M348.5,389.5l2,0.9c0.4,0.2,0.5,0.6,0.4,1c-0.2,0.4-0.6,0.5-1,0.4l0,0l-2-0.9c-0.4-0.2-0.5-0.6-0.3-1
				C347.7,389.5,348.1,389.3,348.5,389.5z"/>
			<path fill="#FFFFFF" d="M355.2,392.7l2,1c0.4,0.2,0.5,0.6,0.3,1c-0.2,0.4-0.6,0.5-1,0.3l0,0l-2-1c-0.4-0.2-0.5-0.6-0.3-1
				C354.3,392.7,354.8,392.5,355.2,392.7z"/>
			<path fill="#FFFFFF" d="M361.8,396l2,1c0.4,0.2,0.5,0.6,0.3,1c-0.2,0.4-0.6,0.5-1,0.3l0,0l-2-1c-0.4-0.2-0.5-0.6-0.3-1
				C361,396,361.4,395.8,361.8,396z"/>
			<path fill="#FFFFFF" d="M368.4,399.4l2,1c0.4,0.2,0.5,0.7,0.3,1.1c-0.2,0.4-0.7,0.5-1.1,0.3l0,0l-2-1c-0.4-0.2-0.5-0.7-0.3-1.1
				C367.5,399.3,368,399.2,368.4,399.4z"/>
			<path fill="#FFFFFF" d="M375,402.7l2,1c0.4,0.2,0.6,0.7,0.4,1.1c-0.2,0.4-0.7,0.6-1.1,0.4l0,0l-2-1c-0.4-0.2-0.6-0.7-0.4-1.1
				C374.1,402.6,374.6,402.5,375,402.7z"/>
			<path fill="#FFFFFF" d="M381.6,405.9l2,0.9c0.4,0.2,0.6,0.7,0.4,1.1c-0.2,0.4-0.7,0.6-1.1,0.4l0,0l-2-0.9
				c-0.4-0.2-0.6-0.7-0.4-1.1C380.7,405.9,381.2,405.7,381.6,405.9z"/>
			<path fill="#FFFFFF" d="M388.4,409l2,0.9c0.4,0.2,0.6,0.7,0.4,1.1c-0.2,0.4-0.7,0.6-1.1,0.4l0,0l-2-0.9c-0.4-0.2-0.6-0.7-0.4-1.1
				C387.4,409,387.9,408.8,388.4,409z"/>
			<path fill="#FFFFFF" d="M395.1,411.8l2.1,0.8c0.4,0.2,0.7,0.7,0.5,1.1c-0.2,0.4-0.7,0.7-1.1,0.5l0,0l-2.1-0.8
				c-0.4-0.2-0.7-0.7-0.5-1.1C394.2,411.8,394.7,411.6,395.1,411.8z"/>
			<path fill="#FFFFFF" d="M402.1,414.3l2.1,0.7c0.5,0.1,0.7,0.6,0.6,1.1c-0.1,0.5-0.6,0.7-1.1,0.6h0l-2.1-0.7
				c-0.5-0.1-0.7-0.6-0.6-1.1C401.1,414.4,401.6,414.1,402.1,414.3z"/>
			<path fill="#FFFFFF" d="M409.1,416.4l2.2,0.6c0.5,0.1,0.8,0.6,0.6,1.1c-0.1,0.5-0.6,0.8-1.1,0.6l0,0l-2.1-0.6
				c-0.5-0.1-0.8-0.6-0.6-1.1C408.1,416.6,408.6,416.3,409.1,416.4z"/>
			<path fill="#FFFFFF" d="M416.2,418.1l2.2,0.4c0.5,0.1,0.8,0.6,0.7,1.1c-0.1,0.5-0.6,0.8-1.1,0.7h0l-2.2-0.4
				c-0.5-0.1-0.8-0.6-0.7-1.1C415.3,418.3,415.7,418,416.2,418.1z"/>
			<path fill="#FFFFFF" d="M423.5,419.2l2.2,0.2c0.5,0,0.9,0.5,0.8,1c-0.1,0.5-0.5,0.9-1,0.8h0l-2.2-0.2c-0.5-0.1-0.9-0.5-0.8-1
				C422.5,419.5,423,419.1,423.5,419.2z"/>
			<path fill="#FFFFFF" d="M430.8,419.6l2.2,0c0.5,0,1,0.4,0.9,1c0,0.5-0.4,1-1,0.9h0l-2.2,0c-0.5,0-0.9-0.4-0.9-1
				C429.8,420,430.2,419.6,430.8,419.6z"/>
			<path fill="#FFFFFF" d="M438.1,419.4l2.2-0.2c0.5,0,1,0.4,1.1,0.9c0,0.5-0.4,1-0.9,1.1h0l-2.2,0.2c-0.5,0-1-0.4-1-0.9
				C437.1,419.9,437.5,419.5,438.1,419.4z"/>
			<path fill="#FFFFFF" d="M445.3,418.6l2.2-0.4c0.5-0.1,1.1,0.3,1.1,0.8s-0.3,1.1-0.8,1.1h0l-2.2,0.4c-0.5,0.1-1-0.3-1.1-0.8
				C444.4,419.2,444.8,418.7,445.3,418.6z"/>
			<path fill="#FFFFFF" d="M452.5,417.2l2.2-0.6c0.5-0.1,1.1,0.2,1.2,0.7s-0.2,1.1-0.7,1.2h0l-2.2,0.5c-0.5,0.1-1.1-0.2-1.2-0.7
				C451.7,417.9,452,417.3,452.5,417.2z"/>
			<path fill="#FFFFFF" d="M459.6,415.2l2.1-0.7c0.5-0.2,1.1,0.1,1.3,0.6c0.2,0.5-0.1,1.1-0.6,1.3h0l-2.1,0.7
				c-0.5,0.2-1.1-0.1-1.3-0.6C458.7,415.9,459,415.4,459.6,415.2z"/>
			<path fill="#FFFFFF" d="M466.4,412.6l2-0.9c0.5-0.2,1.2,0,1.4,0.5c0.2,0.5,0,1.2-0.5,1.4h0l-2,0.9c-0.5,0.2-1.1,0-1.4-0.5
				C465.6,413.4,465.9,412.8,466.4,412.6z"/>
			<path fill="#FFFFFF" d="M473,409.4l1.9-1.1c0.5-0.3,1.2-0.1,1.4,0.4c0.3,0.5,0.1,1.2-0.4,1.4h0l-1.9,1.1
				c-0.5,0.3-1.2,0.1-1.4-0.4C472.3,410.3,472.5,409.7,473,409.4z"/>
			<path fill="#FFFFFF" d="M479.3,405.7l1.8-1.2c0.5-0.3,1.2-0.2,1.5,0.3c0.3,0.5,0.2,1.2-0.3,1.5h0l-1.9,1.2
				c-0.5,0.3-1.2,0.2-1.5-0.3C478.6,406.7,478.8,406,479.3,405.7z"/>
			<path fill="#FFFFFF" d="M485.2,401.5l1.7-1.4c0.5-0.4,1.2-0.3,1.6,0.2s0.3,1.2-0.2,1.6l0,0l-1.7,1.4c-0.5,0.4-1.2,0.3-1.5-0.2
				C484.7,402.5,484.7,401.8,485.2,401.5z"/>
		</g>
	</g>
	<g>
		
			<linearGradient id="SVGID_50_" gradientUnits="userSpaceOnUse" x1="65.6972" y1="-1590.0107" x2="173.28" y2="-1726.7687" gradientTransform="matrix(0.8924 -0.4512 -0.4512 -0.8924 -731.1854 -1174.7676)">
			<stop  offset="0" style="stop-color:#CB236D"/>
			<stop  offset="1" style="stop-color:#4C246D"/>
		</linearGradient>
		<path fill="url(#SVGID_50_)" d="M135.7,332.5L64,221c-1.5-2.4-0.8-5.5,1.5-7c8.4-5.3,30.9-17,80.7-27.9l64.8,108.3L135.7,332.5z"
			/>
		
			<linearGradient id="SVGID_51_" gradientUnits="userSpaceOnUse" x1="104.6158" y1="-1625.6333" x2="251.7068" y2="-1853.5637" gradientTransform="matrix(0.8924 -0.4512 -0.4512 -0.8924 -731.1854 -1174.7676)">
			<stop  offset="0" style="stop-color:#53D8FF"/>
			<stop  offset="1" style="stop-color:#3840F7"/>
		</linearGradient>
		<path fill="url(#SVGID_51_)" d="M143.1,328.8L67.3,210.6c-1.2-1.9-0.6-4.5,1.4-5.6c12.1-6.6,51.2-26.3,77.6-19l64.8,108.3
			L143.1,328.8z"/>
		<path opacity="0.69" fill="#FFFFFF" enable-background="new    " d="M146.4,324.7c-1.6,0.8-3.6,0.3-4.5-1.2l-71.7-112
			c-1.2-1.9-0.6-4.3,1.3-5.4c11.3-6.2,47.7-24.5,73.1-18.4c0.9,0.2,1.7,0.8,2.2,1.6L207,289.9c1,1.7,0.4,4-1.4,4.9L146.4,324.7z"/>
		
			<linearGradient id="SVGID_52_" gradientUnits="userSpaceOnUse" x1="162.3743" y1="-1597.7573" x2="112.5334" y2="-1667.0483" gradientTransform="matrix(0.8924 -0.4512 -0.4512 -0.8924 -731.1854 -1174.7676)">
			<stop  offset="0" style="stop-color:#B37CFF"/>
			<stop  offset="1" style="stop-color:#F895E7"/>
		</linearGradient>
		<path opacity="0.5" fill="url(#SVGID_52_)" enable-background="new    " d="M78.3,213.4l41.4,63.8c1.5,2.4,4.6,3.2,7.1,1.9
			l45.6-23.6c2.8-1.4,3.8-4.9,2.2-7.6l-31.6-54.7c-1-1.8-3-2.8-5-2.7c-9.4,0.5-36.4,2.9-57.9,15.3C77.4,207.2,76.5,210.7,78.3,213.4
			z"/>
		
			<linearGradient id="SVGID_53_" gradientUnits="userSpaceOnUse" x1="106.0564" y1="-1696.2509" x2="166.0523" y2="-1696.2509" gradientTransform="matrix(0.8924 -0.4512 -0.4512 -0.8924 -731.1854 -1174.7676)">
			<stop  offset="0" style="stop-color:#53D8FF"/>
			<stop  offset="1" style="stop-color:#3840F7"/>
		</linearGradient>
		<path fill="url(#SVGID_53_)" d="M128.8,291.1l1.2,1.5c0.8,1,2.1,1.2,3.2,0.7l48.4-24.6c1.4-0.7,1.9-2.5,0.9-3.8l-1.5-2.1
			c-0.8-1.1-2.1-1.4-3.3-0.8l-48.2,25.2C128.2,287.9,127.8,289.8,128.8,291.1z"/>
		
			<linearGradient id="SVGID_54_" gradientUnits="userSpaceOnUse" x1="107.5832" y1="-1711.3458" x2="166.164" y2="-1711.3458" gradientTransform="matrix(0.8924 -0.4512 -0.4512 -0.8924 -731.1854 -1174.7676)">
			<stop  offset="0" style="stop-color:#53D8FF"/>
			<stop  offset="1" style="stop-color:#3840F7"/>
		</linearGradient>
		<path fill="url(#SVGID_54_)" d="M136.5,303l1.4,2.2c0.7,1.2,2.3,1.6,3.5,0.9l46.4-25.9c1.3-0.7,1.8-2.5,0.9-3.8l-0.1,0
			c-0.7-1.1-2.1-1.4-3.3-0.9l-47.8,23.7C136.2,299.9,135.7,301.6,136.5,303z"/>
		
			<linearGradient id="SVGID_55_" gradientUnits="userSpaceOnUse" x1="108.459" y1="-1724.0411" x2="168.4959" y2="-1724.0411" gradientTransform="matrix(0.8924 -0.4512 -0.4512 -0.8924 -731.1854 -1174.7676)">
			<stop  offset="0" style="stop-color:#53D8FF"/>
			<stop  offset="1" style="stop-color:#3840F7"/>
		</linearGradient>
		<path fill="url(#SVGID_55_)" d="M143.9,315.5l1.3,1.8c0.5,0.8,1.6,1,2.4,0.6l49.2-26.7c1-0.6,1.3-2,0.5-2.8l-2.7-3
			c-0.6-0.6-1.5-0.8-2.3-0.4l-47.7,27.1C143.4,312.7,143.1,314.4,143.9,315.5z"/>
		
			<linearGradient id="SVGID_56_" gradientUnits="userSpaceOnUse" x1="296.1526" y1="-1654.4517" x2="231.1161" y2="-1666.6079" gradientTransform="matrix(0.8924 -0.4512 -0.4512 -0.8924 -731.1854 -1174.7676)">
			<stop  offset="0" style="stop-color:#CB236D"/>
			<stop  offset="1" style="stop-color:#4C246D"/>
		</linearGradient>
		<path fill="url(#SVGID_56_)" d="M148.6,184.5c0,0,20.8-40.9,69.5-51.2c2.9-0.6,5.9,0.8,7.3,3.4l63.9,118.2l-78.2,39.6L148.6,184.5
			z"/>
		
			<linearGradient id="SVGID_57_" gradientUnits="userSpaceOnUse" x1="186.2569" y1="-1694.6206" x2="439.716" y2="-1503.7664" gradientTransform="matrix(0.8924 -0.4512 -0.4512 -0.8924 -731.1854 -1174.7676)">
			<stop  offset="0" style="stop-color:#53D8FF"/>
			<stop  offset="1" style="stop-color:#3840F7"/>
		</linearGradient>
		<path fill="url(#SVGID_57_)" d="M215.1,133.4l69.2,124l-73.1,37l-64.8-108.3c0,0,22.9-41.7,59.1-56.2
			C209,128.5,213.2,130,215.1,133.4z"/>
		<path opacity="0.69" fill="#FFFFFF" enable-background="new    " d="M214.9,136l65,116.6c1.1,2,0.3,4.4-1.7,5.4l-63.7,32.2
			c-1.9,1-4.3,0.3-5.4-1.6l-60.9-101.6c0,0,22.1-40.4,57.3-54.4C209,131.2,213,132.7,214.9,136z"/>
		
			<linearGradient id="SVGID_58_" gradientUnits="userSpaceOnUse" x1="179.8806" y1="-1648.854" x2="250.0994" y2="-1648.854" gradientTransform="matrix(0.8924 -0.4512 -0.4512 -0.8924 -731.1854 -1174.7676)">
			<stop  offset="0" style="stop-color:#B37CFF"/>
			<stop  offset="1" style="stop-color:#F895E7"/>
		</linearGradient>
		<path opacity="0.5" fill="url(#SVGID_58_)" enable-background="new    " d="M162.1,179.2c-3.1,2.9-3.7,7.6-1.4,11.3
			c9.2,14.8,32.2,51.9,39.9,63.8c1.4,2.2,4.2,2.9,6.4,1.6l46.4-25.5c2.7-1.5,3.7-4.9,2.2-7.7l-43.3-78.4c-1.4-2.5-4.5-3.5-7.1-2.2
			C197.5,145.8,173,168.8,162.1,179.2z"/>
		
			<linearGradient id="SVGID_59_" gradientUnits="userSpaceOnUse" x1="187.1085" y1="-1711.7679" x2="250.1067" y2="-1711.7679" gradientTransform="matrix(0.8924 -0.4512 -0.4512 -0.8924 -731.1854 -1174.7676)">
			<stop  offset="0" style="stop-color:#53D8FF"/>
			<stop  offset="1" style="stop-color:#3840F7"/>
		</linearGradient>
		<path fill="url(#SVGID_59_)" d="M209.2,265l51.7-26.2c1.2-0.6,2.7-0.1,3.4,1.1l0,0c0.6,1.2,0.1,2.7-1.1,3.4l-51.7,26.2
			c-1.2,0.6-2.7,0.1-3.4-1.1l0,0C207.5,267.1,208,265.6,209.2,265z"/>
		
			<linearGradient id="SVGID_60_" gradientUnits="userSpaceOnUse" x1="187.0628" y1="-1724.0696" x2="250.1638" y2="-1724.0696" gradientTransform="matrix(0.8924 -0.4512 -0.4512 -0.8924 -731.1854 -1174.7676)">
			<stop  offset="0" style="stop-color:#53D8FF"/>
			<stop  offset="1" style="stop-color:#3840F7"/>
		</linearGradient>
		<path fill="url(#SVGID_60_)" d="M213.3,278.7l0.8,1.4c0.6,1.2,2.1,1.6,3.3,1l51.8-26c1.3-0.6,1.8-2.2,1.1-3.5l0,0
			c-0.6-1.2-2.1-1.6-3.3-1.1l-52.6,24.7C213.1,275.8,212.6,277.4,213.3,278.7z"/>
	</g>
	<g>
		<g>
			<g>
				
					<linearGradient id="SVGID_61_" gradientUnits="userSpaceOnUse" x1="9063.5586" y1="184.491" x2="8943.4033" y2="106.6004" gradientTransform="matrix(-1 0 0 -1 9252.3076 500)">
					<stop  offset="0" style="stop-color:#53D8FF"/>
					<stop  offset="1" style="stop-color:#3840F7"/>
				</linearGradient>
				<path fill="url(#SVGID_61_)" d="M140.2,337.5h133.5v-20.5H140.2C143,317.1,143,337.5,140.2,337.5z"/>
				<g>
					
						<linearGradient id="SVGID_62_" gradientUnits="userSpaceOnUse" x1="121.6681" y1="186.8513" x2="309.0302" y2="155.9031" gradientTransform="matrix(1 0 0 -1 0 500)">
						<stop  offset="0" style="stop-color:#53D8FF"/>
						<stop  offset="1" style="stop-color:#3840F7"/>
					</linearGradient>
					<path fill="url(#SVGID_62_)" d="M273.7,332.4V323c0-3.3-2.6-6-5.9-6H140.7c-2.6,0-4.6-1.6-4.6-3.5c0-0.6,0.6-1.1,1.4-1.1h138.9
						c3.2,0,8.2,3.8,8.2,8.6v13.1c0,4.5-4.9,8.1-7.9,8.1H138.2c-1.2,0-2.1-0.7-2.1-1.6c0-1.7,1.7-3,3.9-3h128.6
						C271.4,337.5,273.7,335.2,273.7,332.4z"/>
				</g>
			</g>
			<path fill="#FFFFFF" d="M270,321.9H144.8c-0.3,0-0.6-0.3-0.6-0.6c0-0.3,0.3-0.6,0.6-0.6H270c0.3,0,0.6,0.3,0.6,0.6
				C270.6,321.6,270.3,321.9,270,321.9z"/>
			<path fill="#FFFFFF" d="M270,324.9H144.8c-0.3,0-0.6-0.3-0.6-0.6c0-0.3,0.3-0.6,0.6-0.6H270c0.3,0,0.6,0.3,0.6,0.6
				C270.6,324.6,270.3,324.9,270,324.9z"/>
			<path fill="#FFFFFF" d="M270,327.9H144.8c-0.3,0-0.6-0.3-0.6-0.6c0-0.3,0.3-0.6,0.6-0.6H270c0.3,0,0.6,0.3,0.6,0.6
				C270.6,327.7,270.3,327.9,270,327.9z"/>
			<path fill="#FFFFFF" d="M270,331H144.8c-0.3,0-0.6-0.3-0.6-0.6c0-0.3,0.3-0.6,0.6-0.6H270c0.3,0,0.6,0.3,0.6,0.6
				C270.6,330.7,270.3,331,270,331z"/>
			<path fill="#FFFFFF" d="M270,334H144.8c-0.3,0-0.6-0.3-0.6-0.6s0.3-0.6,0.6-0.6H270c0.3,0,0.6,0.3,0.6,0.6S270.3,334,270,334z"/>
		</g>
		<g>
			
				<linearGradient id="SVGID_63_" gradientUnits="userSpaceOnUse" x1="4325.3862" y1="144.5588" x2="4323.3999" y2="64.1029" gradientTransform="matrix(-1 0 0 -1 4508.7476 500)">
				<stop  offset="0" style="stop-color:#2B3582"/>
				<stop  offset="1" style="stop-color:#150E42"/>
			</linearGradient>
			<path fill="url(#SVGID_63_)" d="M279.8,421.9H89.3c-5.9,0-10.7-4.8-10.7-10.7v-18.6c0-5.9,4.8-10.7,10.7-10.7h190.5
				c5.9,0,10.7,4.8,10.7,10.7v18.6C290.5,417.1,285.7,421.9,279.8,421.9z"/>
			<path opacity="0.6" fill="#FFFFFF" enable-background="new    " d="M123.5,417.3h-17.2c-2.1,0-3.9-1.7-3.9-3.9v-23.1
				c0-2.1,1.7-3.9,3.9-3.9h17.2c2.1,0,3.9,1.7,3.9,3.9v23.1C127.4,415.5,125.6,417.3,123.5,417.3z"/>
		</g>
		<g>
			
				<linearGradient id="SVGID_64_" gradientUnits="userSpaceOnUse" x1="-5609.4165" y1="203.4178" x2="-5773.6797" y2="99.9826" gradientTransform="matrix(-1 0 0 -1 -5507.2471 500)">
				<stop  offset="0" style="stop-color:#B37CFF"/>
				<stop  offset="1" style="stop-color:#F895E7"/>
			</linearGradient>
			<path fill="url(#SVGID_64_)" d="M286.9,344.4v6.9c0,1.2-0.7,2.3-1.9,3.1l-1.2,0.8c-1,0.6-0.8,1.8,0.4,2.2l0,0
				c0.8,0.3,0.9,1,0.3,1.5l-1.5,1c-1,0.6-1,1.8,0,2.4l1.1,0.7c0.9,0.6,0.9,1.7-0.1,2.3l-1.2,0.7c-0.8,0.5-0.9,1.4-0.3,2l0.6,0.6
				c0.5,0.4,0.7,1,0.7,1.6V381H127.5v-37.3L286.9,344.4z"/>
			<path opacity="0.78" fill="#FFFFFF" enable-background="new    " d="M133,352.4h148.4c0.3,0,0.6-0.2,0.6-0.4s-0.3-0.4-0.6-0.4
				H133c-0.3,0-0.6,0.2-0.6,0.4S132.6,352.4,133,352.4z"/>
			<path opacity="0.78" fill="#FFFFFF" enable-background="new    " d="M133,358.9h144.9c0.3,0,0.6-0.2,0.6-0.4
				c0-0.2-0.3-0.4-0.6-0.4H133c-0.3,0-0.6,0.2-0.6,0.4C132.4,358.7,132.6,358.9,133,358.9z"/>
			<path opacity="0.78" fill="#FFFFFF" enable-background="new    " d="M133,363.7h143.1c0.3,0,0.6-0.2,0.6-0.4s-0.3-0.4-0.6-0.4
				H133c-0.3,0-0.6,0.2-0.6,0.4S132.6,363.7,133,363.7z"/>
			
				<linearGradient id="SVGID_65_" gradientUnits="userSpaceOnUse" x1="-5800.0557" y1="137.734" x2="-5622.9888" y2="137.734" gradientTransform="matrix(-1 0 0 -1 -5507.2471 500)">
				<stop  offset="0" style="stop-color:#A737D5"/>
				<stop  offset="1" style="stop-color:#EF497A"/>
			</linearGradient>
			<path fill="url(#SVGID_65_)" d="M124.7,341.4h165.6c1.3,0,2.4,0.7,2.5,1.6c0.1,1.1-1,2-2.4,2H136.9c-2.7,0-5,1.4-5.6,3.4
				c-2.5,8.8-2.3,18,0,27.5c0.5,2.2,3.1,3.8,6.1,3.8h149.8c1.3,0,2.4,0.7,2.5,1.6c0.1,1.1-1,2-2.4,2H125.8c-3.9,0-7.2-2.1-7.9-4.9
				c-2.8-11.5-3-22.5,0-33C118.6,343,121.4,341.3,124.7,341.4L124.7,341.4L124.7,341.4z"/>
		</g>
	</g>
</g>
</svg>
