<?xml version="1.0" encoding="utf-8"?>
<!-- Generator: Adobe Illustrator 21.0.0, SVG Export Plug-In . SVG Version: 6.00 Build 0)  -->
<svg version="1.1" id="Layer_1" xmlns="http://www.w3.org/2000/svg" xmlns:xlink="http://www.w3.org/1999/xlink" x="0px" y="0px"
	 viewBox="0 0 83.3 72" style="enable-background:new 0 0 83.3 72;" xml:space="preserve">
<style type="text/css">
	.st0{opacity:0.85;clip-path:url(#SVGID_2_);}
	.st1{fill:none;stroke:#FFFFFF;stroke-width:0.4724;stroke-miterlimit:10;}
	.st2{opacity:0.85;clip-path:url(#SVGID_4_);}
	.st3{opacity:0.85;clip-path:url(#SVGID_6_);}
	.st4{fill:none;stroke:#FFFFFF;stroke-miterlimit:10;}
</style>
<g>
	<g>
		<defs>
			<path id="SVGID_1_" d="M35.7,64.1C34,52.2,20.2,55.8,14.2,48.3c-3.1-3.9-2.7-14.5-1.5-19.3c4.7-18.6,23-23.3,40.6-20.5
				c17.9,2.9,32,14.8,19.1,32.1c-5.3,7.1-11,8.2-18.8,9.8C43.8,52.3,42.4,55.8,35.7,64.1z"/>
		</defs>
		<clipPath id="SVGID_2_">
			<use xlink:href="#SVGID_1_"  style="overflow:visible;"/>
		</clipPath>
		<g class="st0">
			<line class="st1" x1="24.5" y1="6" x2="102.5" y2="6.1"/>
			<line class="st1" x1="21.7" y1="8.3" x2="55.1" y2="8.3"/>
			<line class="st1" x1="58" y1="8.4" x2="91.3" y2="8.4"/>
			<line class="st1" x1="94.3" y1="8.4" x2="99.3" y2="8.4"/>
			<line class="st1" x1="97.2" y1="10.2" x2="63.8" y2="10.2"/>
			<line class="st1" x1="61" y1="10.2" x2="27.6" y2="10.1"/>
			<line class="st1" x1="24.6" y1="10.1" x2="19.6" y2="10.1"/>
			<line class="st1" x1="17.4" y1="11.9" x2="95.4" y2="12"/>
			<line class="st1" x1="14.7" y1="14.2" x2="48" y2="14.2"/>
			<line class="st1" x1="50.8" y1="14.2" x2="84.1" y2="14.3"/>
			<line class="st1" x1="70.5" y1="26.2" x2="45.3" y2="26.2"/>
			<line class="st1" x1="53.9" y1="16.1" x2="20.5" y2="16"/>
			<line class="st1" x1="17.5" y1="16" x2="12.5" y2="16"/>
			<line class="st1" x1="9.7" y1="18.3" x2="81.6" y2="18.4"/>
			<line class="st1" x1="6.9" y1="20.5" x2="40.3" y2="20.6"/>
			<line class="st1" x1="46.2" y1="22.4" x2="12.8" y2="22.4"/>
			<line class="st1" x1="9.8" y1="22.4" x2="4.8" y2="22.4"/>
			<line class="st1" x1="85.8" y1="16" x2="64" y2="16"/>
			<line class="st1" x1="70" y1="22.4" x2="59.8" y2="22.4"/>
			<line class="st1" x1="2.6" y1="24.2" x2="80.6" y2="24.3"/>
			<line class="st1" x1="-0.1" y1="26.4" x2="33.2" y2="26.5"/>
			<line class="st1" x1="39.1" y1="28.3" x2="5.7" y2="28.3"/>
			<line class="st1" x1="73.6" y1="28.3" x2="53" y2="28.3"/>
			<line class="st1" x1="2.6" y1="28.2" x2="-2.4" y2="28.2"/>
			<line class="st1" x1="57.5" y1="22.4" x2="52.5" y2="22.4"/>
			<line class="st1" x1="50.3" y1="28.2" x2="45.3" y2="28.2"/>
		</g>
	</g>
	<g>
		<defs>
			<path id="SVGID_3_" d="M35.7,64.1C34,52.2,20.2,55.8,14.2,48.3c-3.1-3.9-2.7-14.5-1.5-19.3c4.7-18.6,23-23.3,40.6-20.5
				c17.9,2.9,32,14.8,19.1,32.1c-5.3,7.1-11,8.2-18.8,9.8C43.8,52.3,42.4,55.8,35.7,64.1z"/>
		</defs>
		<clipPath id="SVGID_4_">
			<use xlink:href="#SVGID_3_"  style="overflow:visible;"/>
		</clipPath>
		<g class="st2">
			<line class="st1" x1="11.7" y1="30.5" x2="89.7" y2="30.6"/>
			<line class="st1" x1="8.9" y1="32.8" x2="42.3" y2="32.8"/>
			<line class="st1" x1="45.2" y1="32.9" x2="78.5" y2="32.9"/>
			<line class="st1" x1="81.5" y1="32.9" x2="86.5" y2="32.9"/>
			<line class="st1" x1="84.3" y1="34.7" x2="51" y2="34.7"/>
			<line class="st1" x1="48.2" y1="34.7" x2="14.8" y2="34.6"/>
			<line class="st1" x1="11.8" y1="34.6" x2="6.8" y2="34.6"/>
			<line class="st1" x1="4.5" y1="36.4" x2="82.6" y2="36.5"/>
			<line class="st1" x1="1.9" y1="38.7" x2="35.2" y2="38.7"/>
			<line class="st1" x1="38" y1="38.7" x2="71.3" y2="38.8"/>
			<line class="st1" x1="57.7" y1="50.7" x2="32.5" y2="50.7"/>
			<line class="st1" x1="41.1" y1="40.6" x2="7.7" y2="40.5"/>
			<line class="st1" x1="4.6" y1="40.5" x2="-0.4" y2="40.5"/>
			<line class="st1" x1="-3.1" y1="42.8" x2="68.7" y2="42.9"/>
			<line class="st1" x1="-5.9" y1="45" x2="27.5" y2="45.1"/>
			<line class="st1" x1="33.4" y1="46.9" x2="0" y2="46.9"/>
			<line class="st1" x1="-3.1" y1="46.9" x2="-8.1" y2="46.9"/>
			<line class="st1" x1="72.9" y1="40.5" x2="51.1" y2="40.5"/>
			<line class="st1" x1="57.2" y1="46.9" x2="46.9" y2="46.9"/>
			<line class="st1" x1="-10.3" y1="48.7" x2="67.7" y2="48.8"/>
			<line class="st1" x1="-13" y1="50.9" x2="20.3" y2="51"/>
			<line class="st1" x1="26.2" y1="52.8" x2="-7.2" y2="52.8"/>
			<line class="st1" x1="60.8" y1="52.8" x2="40.2" y2="52.8"/>
			<line class="st1" x1="-10.2" y1="52.7" x2="-15.2" y2="52.7"/>
			<line class="st1" x1="44.6" y1="46.9" x2="39.6" y2="46.9"/>
			<line class="st1" x1="37.5" y1="52.7" x2="32.5" y2="52.7"/>
		</g>
	</g>
	<g>
		<defs>
			<path id="SVGID_5_" d="M35.7,64.1C34,52.2,20.2,55.8,14.2,48.3c-3.1-3.9-2.7-14.5-1.5-19.3c4.7-18.6,23-23.3,40.6-20.5
				c17.9,2.9,32,14.8,19.1,32.1c-5.3,7.1-11,8.2-18.8,9.8C43.8,52.3,42.4,55.8,35.7,64.1z"/>
		</defs>
		<clipPath id="SVGID_6_">
			<use xlink:href="#SVGID_5_"  style="overflow:visible;"/>
		</clipPath>
		<g class="st3">
			<line class="st1" x1="1" y1="54.8" x2="79.1" y2="54.9"/>
			<line class="st1" x1="-1.7" y1="57.1" x2="31.7" y2="57.1"/>
			<line class="st1" x1="34.5" y1="57.2" x2="67.8" y2="57.2"/>
			<line class="st1" x1="70.9" y1="57.2" x2="75.9" y2="57.2"/>
			<line class="st1" x1="73.7" y1="59" x2="40.3" y2="59"/>
			<line class="st1" x1="37.6" y1="59" x2="4.2" y2="58.9"/>
			<line class="st1" x1="1.1" y1="58.9" x2="-3.9" y2="58.9"/>
			<line class="st1" x1="-6.1" y1="60.7" x2="71.9" y2="60.8"/>
			<line class="st1" x1="-8.8" y1="63" x2="24.5" y2="63"/>
			<line class="st1" x1="27.4" y1="63" x2="60.7" y2="63.1"/>
			<line class="st1" x1="47" y1="75" x2="21.8" y2="75"/>
			<line class="st1" x1="30.4" y1="64.9" x2="-3" y2="64.8"/>
			<line class="st1" x1="-6" y1="64.8" x2="-11" y2="64.8"/>
			<line class="st1" x1="-13.8" y1="67.1" x2="58.1" y2="67.2"/>
			<line class="st1" x1="-16.5" y1="69.3" x2="16.8" y2="69.4"/>
			<line class="st1" x1="22.7" y1="71.2" x2="-10.7" y2="71.2"/>
			<line class="st1" x1="-13.7" y1="71.2" x2="-18.7" y2="71.2"/>
			<line class="st1" x1="62.3" y1="64.8" x2="40.5" y2="64.8"/>
			<line class="st1" x1="46.6" y1="71.2" x2="36.3" y2="71.2"/>
			<line class="st1" x1="-20.9" y1="73" x2="57.1" y2="73.1"/>
			<line class="st1" x1="-23.6" y1="75.2" x2="9.7" y2="75.3"/>
			<line class="st1" x1="15.6" y1="77.1" x2="-17.8" y2="77.1"/>
			<line class="st1" x1="50.1" y1="77.1" x2="29.5" y2="77.1"/>
			<line class="st1" x1="-20.8" y1="77" x2="-25.8" y2="77"/>
			<line class="st1" x1="34" y1="71.2" x2="29" y2="71.2"/>
			<line class="st1" x1="26.8" y1="77" x2="21.8" y2="77"/>
		</g>
	</g>
	<g>
		<path id="XMLID_1_" class="st4" d="M35.7,64.1C34,52.2,20.2,55.8,14.2,48.3c-3.1-3.9-2.7-14.5-1.5-19.3
			c4.7-18.6,23-23.3,40.6-20.5c17.9,2.9,32,14.8,19.1,32.1c-5.3,7.1-11,8.2-18.8,9.8C43.8,52.3,42.4,55.8,35.7,64.1z"/>
	</g>
</g>
</svg>
